<svg width="51" height="50" viewBox="0 0 51 50" fill="none" xmlns="http://www.w3.org/2000/svg">
<path d="M26.0369 0C27.1168 0.237281 28.1023 0.623785 28.8231 1.44204C29.4897 2.1791 29.8346 3.11219 29.7923 4.06435C29.7829 4.35789 29.8531 4.53156 30.1487 4.68689C34.3073 6.87216 38.46 9.06763 42.6069 11.2733C42.8917 11.4249 43.0564 11.4041 43.2967 11.2085C44.6398 10.1162 46.4851 9.86304 47.997 10.5296C49.6398 11.2635 50.6198 12.7484 50.4876 14.3151C50.3526 15.9651 49.2011 17.275 47.426 17.7789C47.133 17.8621 47.0467 17.982 47.048 18.256C47.0579 22.7472 47.0579 27.2384 47.048 31.7296C47.048 32.0305 47.1614 32.1442 47.4638 32.2274C48.2943 32.4547 49.0287 32.906 49.569 33.5211C50.1092 34.1363 50.4296 34.886 50.4876 35.6704C50.6225 37.2323 49.6506 38.7282 48.0132 39.462C47.2547 39.7874 46.4066 39.9012 45.5767 39.7888C44.7467 39.6764 43.9723 39.343 43.352 38.8309C43.055 38.5863 42.8553 38.5863 42.5286 38.7661C38.4285 40.9481 34.3226 43.1195 30.2108 45.2803C29.8841 45.4515 29.7842 45.6289 29.7937 45.9689C29.8141 46.4914 29.7182 47.0123 29.5116 47.5006C29.305 47.9888 28.992 48.4343 28.5913 48.8105C28.1905 49.1867 27.7102 49.4859 27.179 49.6903C26.6479 49.8947 26.0767 50 25.4997 50C24.9226 50 24.3514 49.8947 23.8203 49.6903C23.2891 49.4859 22.8088 49.1867 22.408 48.8105C22.0073 48.4343 21.6943 47.9888 21.4877 47.5006C21.2811 47.0123 21.1852 46.4914 21.2056 45.9689C21.2164 45.6289 21.1152 45.4515 20.7899 45.2803C16.6763 43.1203 12.5699 40.9489 8.47075 38.7661C8.14543 38.5936 7.94563 38.5826 7.64865 38.8309C6.3865 39.8852 4.4683 40.1286 2.98611 39.462C1.34869 38.7282 0.374092 37.2311 0.513131 35.6704C0.570947 34.8862 0.891183 34.1365 1.43116 33.5214C1.97115 32.9063 2.70521 32.4549 3.53553 32.2274C3.83791 32.1442 3.95266 32.0305 3.95131 31.7296C3.94051 27.2384 3.94051 22.7472 3.95131 18.256C3.95131 17.982 3.86491 17.8621 3.57333 17.7789C1.53634 17.198 0.271492 15.4551 0.538771 13.6339C0.827649 11.6622 2.48938 10.2459 4.66406 10.1713C5.21303 10.143 5.76254 10.2177 6.27819 10.3907C6.79385 10.5637 7.26453 10.8313 7.66081 11.1767C7.93079 11.409 8.11303 11.4213 8.43835 11.2488C12.5528 9.05785 16.6731 6.87666 20.7993 4.70525C21.0369 4.58294 21.2205 4.48021 21.2137 4.16098C21.1638 2.01567 22.4988 0.517373 24.8193 0.0636035C24.867 0.0474299 24.9123 0.026071 24.9543 0H26.0369ZM14.9678 18.525C15.1581 18.4578 15.2013 18.2865 15.2877 18.152C17.5735 14.6213 19.8571 11.0898 22.1384 7.55753C22.6095 6.82978 22.6001 6.83587 22.0183 6.18396C21.8536 5.99927 21.7389 6.00663 21.5337 6.11549C17.4192 8.29831 13.3011 10.4766 9.17944 12.6505C8.96076 12.7655 8.88245 12.8682 8.9621 13.1116C9.1646 13.724 9.1646 14.3767 8.9621 14.989C8.8784 15.2496 8.95535 15.3633 9.19563 15.4881C11.0279 16.447 12.8557 17.4116 14.6789 18.3819C14.7815 18.4309 14.876 18.4761 14.9718 18.525H14.9678ZM42.075 15.1994C42.0467 15.0979 42.0169 15.005 41.9926 14.9095C41.8295 14.3558 41.8332 13.7725 42.0035 13.2204C42.1182 12.8804 41.9954 12.7434 41.6863 12.5808C37.7167 10.4942 33.7538 8.39655 29.7977 6.28793C29.3374 6.04331 29.1039 6.00539 28.7353 6.43103C28.4397 6.77227 28.4451 6.96431 28.6733 7.29577C29.2132 8.08099 29.7127 8.8858 30.2297 9.68815C32.0592 12.5208 33.8897 15.3523 35.721 18.1826C35.8317 18.3526 35.8669 18.629 36.2502 18.4272C38.0982 17.4291 39.9611 16.4556 41.8172 15.471C41.9387 15.4025 42.0993 15.3658 42.0791 15.1994H42.075ZM5.66296 24.9842C5.66296 27.2445 5.66296 29.5044 5.66296 31.7638C5.66296 31.9657 5.65623 32.1308 5.94916 32.198C6.24208 32.2653 6.29203 32.0929 6.38787 31.9461C8.90767 28.0501 11.4275 24.1549 13.9473 20.2606C14.1309 19.9781 14.0823 19.8619 13.7772 19.7041C11.9575 18.759 10.1464 17.8018 8.34387 16.8323C8.09954 16.7014 7.94833 16.7099 7.74719 16.8959C7.29822 17.3218 6.72617 17.6248 6.09627 17.7704C5.7426 17.8474 5.65756 17.9966 5.66026 18.3036C5.67241 20.526 5.66702 22.7533 5.66702 24.9793L5.66296 24.9842ZM45.3256 25.0038C45.3256 22.7936 45.3255 20.5823 45.3336 18.3709C45.3336 18.0382 45.2688 17.8523 44.8652 17.7594C44.2521 17.6179 43.6963 17.3209 43.2629 16.9032C43.0429 16.6977 42.8823 16.7014 42.6217 16.842C40.8336 17.8026 39.0377 18.7517 37.2343 19.6894C36.9035 19.8607 36.8725 19.9891 37.0629 20.2814C39.571 24.1439 42.0728 28.0101 44.5683 31.88C44.6763 32.0476 44.7208 32.28 45.0731 32.1834C45.4254 32.0867 45.3229 31.8715 45.3229 31.6807C45.331 29.4538 45.3332 27.2265 45.3296 24.9989L45.3256 25.0038ZM16.7658 35.1567C19.2429 35.1567 21.7186 35.1506 24.1903 35.1628C24.5399 35.1628 24.6425 35.0784 24.6398 34.758C24.6236 32.9046 24.6236 31.0512 24.6398 29.1978C24.6398 28.8859 24.5048 28.7819 24.2118 28.7085C23.6002 28.5661 23.0433 28.2747 22.6014 27.8658C22.3463 27.6298 22.1654 27.653 21.8725 27.8083C17.6824 30.036 13.4887 32.2571 9.29146 34.4718C9.11328 34.5659 8.83792 34.5941 8.94321 34.9219C9.0485 35.2497 9.28066 35.153 9.49395 35.153C11.9211 35.1579 14.345 35.1592 16.7658 35.1567ZM34.1795 35.1567H41.5539C41.7645 35.1567 41.9589 35.1922 42.0494 34.9194C42.1439 34.6283 41.9144 34.5843 41.7429 34.4938C37.5133 32.2572 33.289 30.0193 29.0701 27.7802C28.7691 27.62 28.6098 27.6762 28.3952 27.8719C27.9497 28.2794 27.3894 28.5683 26.7753 28.7073C26.4189 28.7844 26.3501 28.9519 26.3528 29.2504C26.369 31.0716 26.373 32.8927 26.3528 34.7127C26.3528 35.0858 26.4689 35.1677 26.8631 35.1653C29.301 35.1482 31.7402 35.1567 34.1795 35.1567ZM21.3825 23.8822C21.4081 23.6596 21.1867 23.6315 21.0464 23.5556C19.3752 22.6664 17.6973 21.7882 16.0315 20.8917C15.7372 20.7327 15.6049 20.7523 15.4241 21.0324C12.9241 24.9243 10.4164 28.8117 7.9011 32.6946C7.79986 32.8512 7.61086 32.9943 7.85789 33.201C8.07928 33.3869 8.22103 33.2254 8.37626 33.1435C9.94304 32.3208 11.5084 31.4939 13.0725 30.6631C15.7228 29.2622 18.3718 27.8601 21.0194 26.4568C21.1719 26.3761 21.4513 26.3455 21.3717 26.096C21.132 25.3735 21.1362 24.6025 21.3838 23.8822H21.3825ZM43.2832 33.0138C43.2413 32.9368 43.2049 32.8634 43.1617 32.7949C43.0186 32.5686 42.8728 32.3448 42.727 32.121C40.3521 28.4443 37.9767 24.7689 35.6009 21.0948C35.4794 20.9052 35.4281 20.6361 35.0259 20.8501C33.3196 21.7809 31.5944 22.6848 29.8706 23.585C29.6465 23.7073 29.5831 23.8113 29.66 24.0498C29.8603 24.6293 29.8687 25.2492 29.6843 25.833C29.5709 26.1694 29.6843 26.3113 29.9962 26.4764C34.1862 28.678 38.3709 30.8877 42.5502 33.1056C42.6404 33.1596 42.7342 33.2087 42.831 33.2523C43.0982 33.36 43.163 33.1557 43.2845 33.0138H43.2832ZM16.8252 36.7186H9.45078C9.24424 36.7186 9.04581 36.6758 8.95132 36.9498C8.85683 37.2237 9.07686 37.2873 9.24964 37.3791C13.3191 39.5342 17.389 41.6893 21.4594 43.8444C21.7456 43.9973 21.9062 43.9924 22.1074 43.7343C22.6148 43.0733 23.3642 42.5967 24.2227 42.3889C24.5709 42.302 24.6506 42.1443 24.6465 41.8446C24.6303 40.2839 24.6249 38.7233 24.6465 37.1626C24.6465 36.7957 24.5466 36.7015 24.143 36.7051C21.7024 36.7284 19.2618 36.7137 16.8225 36.7137L16.8252 36.7186ZM34.197 36.7186C31.7564 36.7186 29.3158 36.7247 26.8765 36.7125C26.5053 36.7125 26.3447 36.7541 26.3514 37.1504C26.3798 38.7269 26.3717 40.3035 26.3514 41.8801C26.3514 42.1736 26.4446 42.3081 26.7564 42.3876C27.6148 42.5921 28.3659 43.0647 28.8771 43.7221C29.0971 44.0022 29.2672 43.9899 29.5683 43.8297C33.6179 41.6762 37.6716 39.5285 41.7294 37.3864C41.8968 37.2971 42.1344 37.2641 42.0521 36.9669C41.9697 36.6697 41.7335 36.7223 41.5121 36.7223L34.197 36.7186ZM24.6384 14.4582C24.6384 12.3431 24.6384 10.2292 24.6384 8.11646C24.6384 7.92933 24.6897 7.74953 24.386 7.66147C24.0823 7.57341 24.0107 7.75811 23.9054 7.92078C21.5134 11.6219 19.1201 15.3217 16.7253 19.0204C16.5269 19.3249 16.6363 19.4191 16.913 19.5634C18.5761 20.4294 20.2324 21.3059 21.8819 22.1931C22.1762 22.3521 22.3585 22.368 22.6109 22.1319C23.035 21.7286 23.5765 21.4424 24.1727 21.3064C24.5682 21.2171 24.6506 21.0422 24.6479 20.7022C24.6276 18.6192 24.6357 16.5387 24.6357 14.4533L24.6384 14.4582ZM26.3636 14.4582C26.3636 16.5558 26.3703 18.6547 26.3555 20.7523C26.3555 21.0568 26.423 21.2171 26.7793 21.2941C27.3938 21.4331 27.9541 21.7225 28.3992 22.1307C28.622 22.3289 28.7839 22.3753 29.0823 22.22C30.7426 21.319 32.4143 20.4343 34.0971 19.5659C34.44 19.3898 34.4373 19.2626 34.2524 18.9788C31.8703 15.3095 29.4953 11.6378 27.1276 7.96357C27.0183 7.79601 26.9724 7.56485 26.6214 7.66147C26.2704 7.7581 26.3717 7.9746 26.3717 8.1654C26.3627 10.2626 26.3591 12.3586 26.3609 14.4533L26.3636 14.4582ZM28.0847 3.94694C28.0938 3.4834 27.9507 3.02787 27.6737 2.63808C27.3967 2.24829 26.9981 1.94181 26.5286 1.75749C26.0592 1.57316 25.5398 1.51927 25.0365 1.60269C24.5332 1.68611 24.0685 1.90306 23.7015 2.22603C23.3344 2.54901 23.0814 2.96348 22.9746 3.41688C22.8678 3.87028 22.912 4.34221 23.1016 4.77283C23.2911 5.20345 23.6176 5.57336 24.0395 5.83569C24.4613 6.09802 24.9597 6.24094 25.4713 6.24634C26.152 6.24813 26.8064 6.00834 27.2944 5.57832C27.7824 5.14831 28.0651 4.56228 28.082 3.94571L28.0847 3.94694ZM25.5199 43.7551C25.0084 43.7519 24.5073 43.8865 24.0804 44.1417C23.6534 44.397 23.3196 44.7614 23.1215 45.1887C22.9234 45.616 22.8699 46.087 22.9676 46.542C23.0654 46.9969 23.3101 47.4153 23.6706 47.7441C24.0312 48.0728 24.4914 48.2972 24.9929 48.3886C25.4944 48.4801 26.0146 48.4345 26.4874 48.2577C26.9603 48.0809 27.3645 47.7808 27.6489 47.3955C27.9333 47.0103 28.085 46.5571 28.0847 46.0936C28.0791 45.4759 27.8063 44.8849 27.325 44.4474C26.8437 44.0099 26.1922 43.7609 25.5105 43.7539L25.5199 43.7551ZM4.75179 16.4017C5.095 16.4115 5.43691 16.3591 5.75752 16.2477C6.07812 16.1363 6.37098 15.9681 6.61896 15.7529C6.86695 15.5377 7.06509 15.2798 7.20176 14.9944C7.33844 14.709 7.41092 14.4017 7.41496 14.0906C7.419 13.7795 7.35452 13.4708 7.2253 13.1826C7.09607 12.8943 6.9047 12.6323 6.66237 12.4119C6.42004 12.1914 6.1316 12.017 5.81397 11.8988C5.49634 11.7806 5.15589 11.7209 4.81252 11.7234C3.43158 11.6965 2.23423 12.763 2.21668 14.035C2.21467 14.6513 2.47874 15.2438 2.95243 15.686C3.42613 16.1283 4.07189 16.3851 4.75179 16.4017ZM48.7691 14.0424C48.757 12.7703 47.565 11.7014 46.1827 11.7185C45.6714 11.7192 45.1719 11.8575 44.7474 12.1157C44.3229 12.374 43.9925 12.7406 43.7982 13.1691C43.6039 13.5977 43.5544 14.0688 43.6559 14.5229C43.7575 14.9769 44.0054 15.3935 44.3685 15.7197C44.7316 16.0459 45.1934 16.2671 45.6953 16.3553C46.1973 16.4435 46.7169 16.3946 47.1882 16.215C47.6595 16.0354 48.0613 15.733 48.3428 15.3462C48.6242 14.9594 48.7726 14.5056 48.7691 14.0424ZM7.38003 35.9456C7.38179 35.4845 7.23312 35.0332 6.95271 34.6483C6.6723 34.2635 6.27266 33.9624 5.80395 33.7827C5.33524 33.603 4.81837 33.5528 4.31828 33.6384C3.81819 33.724 3.35718 33.9416 2.99313 34.2638C2.62909 34.5861 2.37824 34.9986 2.27211 35.4496C2.16599 35.9006 2.2093 36.3699 2.39662 36.7987C2.58395 37.2275 2.90695 37.5965 3.325 37.8595C3.74306 38.1225 4.23755 38.2677 4.74638 38.2768C5.43697 38.2831 6.10219 38.0413 6.59668 37.6045C7.09118 37.1677 7.37476 36.5713 7.38543 35.9456H7.38003ZM46.2219 38.2768C46.9017 38.2634 47.5487 38.0096 48.0247 37.5696C48.5007 37.1297 48.7679 36.5385 48.7691 35.9224C48.7597 34.6504 47.5691 33.5789 46.1868 33.5985C45.843 33.5938 45.5016 33.6514 45.1826 33.7679C44.8637 33.8843 44.5737 34.0573 44.3295 34.2767C44.0854 34.4961 43.892 34.7575 43.7609 35.0455C43.6297 35.3335 43.5634 35.6423 43.5657 35.9539C43.568 36.2655 43.639 36.5735 43.7745 36.8598C43.9099 37.1462 44.1072 37.4052 44.3546 37.6215C44.602 37.8379 44.8946 38.0073 45.2153 38.1199C45.5359 38.2324 45.8782 38.2858 46.2219 38.2768ZM28.0753 25.016C28.0787 24.5527 27.9303 24.099 27.6489 23.7122C27.3674 23.3254 26.9656 23.023 26.4943 22.8434C26.023 22.6637 25.5034 22.6149 25.0014 22.7031C24.4995 22.7913 24.0377 23.0125 23.6747 23.3387C23.3116 23.6649 23.0636 24.0814 22.962 24.5355C22.8605 24.9896 22.91 25.4607 23.1043 25.8892C23.2987 26.3178 23.629 26.6844 24.0535 26.9426C24.478 27.2009 24.9776 27.3392 25.4889 27.3399C26.1693 27.3331 26.8201 27.0868 27.3037 26.6531C27.7874 26.2194 28.066 25.6324 28.0807 25.016H28.0753Z" fill="url(#paint0_linear_38_5552)"/>
<defs>
<linearGradient id="paint0_linear_38_5552" x1="25.5" y1="0" x2="25.5" y2="50" gradientUnits="userSpaceOnUse">
<stop stop-color="#01D6FE"/>
<stop offset="0.3125" stop-color="#008BD9"/>
<stop offset="1" stop-color="#10FFB7"/>
</linearGradient>
</defs>
</svg>
