<svg width="51" height="50" viewBox="0 0 51 50" fill="none" xmlns="http://www.w3.org/2000/svg">
<path d="M27.067 0.00781377C27.9986 0.137916 28.9382 0.221182 29.8607 0.398121C36.9165 1.72603 42.4378 5.36891 46.4246 11.3267C49.2653 15.5785 50.6941 20.3038 50.4788 25.4012C50.0495 35.5674 45.2202 43.0951 36.0379 47.477C28.1409 51.25 20.1708 50.7465 12.6535 46.2671C5.83297 42.2027 1.90925 36.0722 0.712693 28.227C0.625267 27.652 0.570463 27.0717 0.5 26.4954V23.3729C0.609608 22.5403 0.690516 21.7024 0.832746 20.8749C1.71744 15.6891 3.99834 11.2018 7.70284 7.45749C11.4439 3.67671 15.9443 1.30492 21.1977 0.383796C22.1111 0.22377 23.0245 0.123597 23.9379 0L27.067 0.00781377ZM25.5011 2.34966C13.0267 2.34966 2.85137 12.4846 2.84224 24.9185C2.8318 37.3772 13.011 47.5369 25.5024 47.5369C37.9939 47.5369 48.1509 37.4006 48.1614 24.9654C48.1757 12.5015 37.9978 2.34445 25.5038 2.34575L25.5011 2.34966Z" fill="url(#paint0_linear_38_5560)"/>
<path d="M24.332 32.5361C24.332 30.5403 24.3215 28.5445 24.3424 26.5514C24.3424 26.1754 24.2315 26.0999 23.8779 26.1025C21.8436 26.1194 19.8093 26.1142 17.775 26.109C16.6346 26.109 16.1101 25.1983 16.6803 24.216C19.2535 19.7639 21.8306 15.314 24.4116 10.8662C24.7508 10.2807 25.2454 10.0387 25.7752 10.1714C26.3558 10.3185 26.6703 10.7829 26.6768 11.5024V11.8927C26.6768 15.6891 26.6833 19.4868 26.6664 23.2832C26.6664 23.6969 26.7812 23.7867 27.1792 23.7828C29.1808 23.762 31.1825 23.7711 33.1816 23.7737C34.3859 23.7737 34.9053 24.6675 34.3024 25.7109C31.7449 30.1344 29.1848 34.5579 26.622 38.9814C26.2658 39.5955 25.7699 39.8518 25.2297 39.7151C24.6503 39.5694 24.3307 39.1037 24.3307 38.3842C24.3298 36.4327 24.3302 34.4833 24.332 32.5361ZM24.332 15.8751L24.2276 15.8465L19.6423 23.7698C21.1886 23.7698 22.6435 23.7698 24.1023 23.7698C24.4077 23.7698 24.3294 23.5564 24.3294 23.3964C24.3294 21.9861 24.3294 20.5758 24.3294 19.1654L24.332 15.8751ZM31.3678 26.1077C29.8894 26.1077 28.5075 26.1207 27.127 26.0986C26.7655 26.0986 26.6651 26.1845 26.6677 26.5527C26.6846 28.9518 26.6755 31.3508 26.6794 33.7499C26.6794 33.8371 26.6311 33.9438 26.7734 34.0427L31.3678 26.1077Z" fill="url(#paint1_linear_38_5560)"/>
<defs>
<linearGradient id="paint0_linear_38_5560" x1="25.5" y1="0" x2="25.5" y2="50" gradientUnits="userSpaceOnUse">
<stop stop-color="#01D6FE"/>
<stop offset="0.3125" stop-color="#008BD9"/>
<stop offset="1" stop-color="#10FFB7"/>
</linearGradient>
<linearGradient id="paint1_linear_38_5560" x1="25.5014" y1="10.136" x2="25.5014" y2="39.751" gradientUnits="userSpaceOnUse">
<stop stop-color="#01D6FE"/>
<stop offset="0.3125" stop-color="#008BD9"/>
<stop offset="1" stop-color="#10FFB7"/>
</linearGradient>
</defs>
</svg>
