<svg width="51" height="50" viewBox="0 0 51 50" fill="none" xmlns="http://www.w3.org/2000/svg">
<g clip-path="url(#clip0_38_5553)">
<path d="M0.5001 25.0216C0.465622 12.8702 9.37475 2.33924 21.3714 0.355099C26.5162 -0.533998 31.8104 0.232548 36.4917 2.54437C36.6072 2.60126 36.7261 2.65297 36.8365 2.71675C37.5777 3.14427 37.8449 3.93381 37.4898 4.63886C37.4066 4.80874 37.29 4.96009 37.147 5.08392C37.004 5.20775 36.8375 5.3015 36.6575 5.35958C36.4774 5.41766 36.2875 5.43891 36.0991 5.422C35.9107 5.40508 35.7276 5.35036 35.5608 5.26114C34.1528 4.57155 32.6841 4.01354 31.1734 3.5942C19.6112 0.491289 7.50433 7.3625 4.23064 18.8709C3.39474 21.7932 3.16847 24.8561 3.56591 27.8695C3.96336 30.8829 4.97603 33.7825 6.54103 36.3881C8.10603 38.9938 10.1899 41.25 12.6634 43.0165C15.1369 44.7831 17.9472 46.0224 20.9197 46.6575C33.1594 49.2932 45.3025 41.0067 47.3247 28.6433C47.8222 25.6638 47.7096 22.6142 46.9937 19.6794C46.8902 19.2553 46.8213 18.833 47.0144 18.421C47.1296 18.1507 47.3298 17.9253 47.5845 17.7788C47.8392 17.6323 48.1346 17.5728 48.4262 17.609C49.0658 17.6487 49.5295 18.0572 49.7157 18.7761C50.2397 20.7971 50.5033 22.8768 50.5001 24.9647C50.4978 30.5919 48.5995 36.0543 45.1114 40.4702C41.6234 44.8861 36.7491 47.998 31.2752 49.3036C17.8287 52.5547 4.11512 43.9855 1.10692 30.4499C0.724679 28.6651 0.521399 26.8467 0.5001 25.0216Z" fill="url(#paint0_linear_38_5553)"/>
<path d="M17.5114 20.9947C18.0286 20.9636 18.4044 21.2429 18.7475 21.5877C20.5852 23.4287 22.4366 25.2543 24.2553 27.104C24.6311 27.4884 24.8277 27.4815 25.2052 27.104C32.3973 19.8891 39.5992 12.6835 46.8108 5.487C47.002 5.28317 47.2046 5.09034 47.4177 4.9095C47.6867 4.69041 48.0268 4.57766 48.3734 4.59259C48.7201 4.60753 49.0492 4.7491 49.2984 4.99051C49.5513 5.22958 49.7056 5.55453 49.7311 5.90155C49.7566 6.24857 49.6515 6.5926 49.4363 6.86608C49.2908 7.05053 49.1311 7.22343 48.9588 7.38323C41.3461 14.9992 33.7322 22.6134 26.1171 30.2258C25.0587 31.2843 24.4105 31.2808 23.3451 30.2172C21.1408 28.0141 18.9365 25.8111 16.7322 23.608C16.2582 23.1374 15.9582 22.6254 16.203 21.9393C16.2912 21.6625 16.4659 21.4214 16.7015 21.2513C16.937 21.0813 17.2209 20.9913 17.5114 20.9947Z" fill="url(#paint1_linear_38_5553)"/>
</g>
<defs>
<linearGradient id="paint0_linear_38_5553" x1="25.5001" y1="-0.00515747" x2="25.5001" y2="49.9932" gradientUnits="userSpaceOnUse">
<stop stop-color="#01D6FE"/>
<stop offset="0.3125" stop-color="#008BD9"/>
<stop offset="1" stop-color="#10FFB7"/>
</linearGradient>
<linearGradient id="paint1_linear_38_5553" x1="32.9253" y1="4.59128" x2="32.9253" y2="31.0173" gradientUnits="userSpaceOnUse">
<stop stop-color="#01D6FE"/>
<stop offset="0.3125" stop-color="#008BD9"/>
<stop offset="1" stop-color="#10FFB7"/>
</linearGradient>
<clipPath id="clip0_38_5553">
<rect width="50" height="50" fill="white" transform="translate(0.5)"/>
</clipPath>
</defs>
</svg>
