<svg width="47" height="50" viewBox="0 0 47 50" fill="none" xmlns="http://www.w3.org/2000/svg">
<path d="M0.502115 24.9808C0.502115 21.867 0.519388 18.7546 0.502115 15.6407C0.483402 13.2083 1.55868 11.4347 3.71928 10.2304C9.25826 7.13669 14.7886 4.028 20.3103 0.904354C22.4695 -0.316784 24.5768 -0.292929 26.7288 0.925404C32.2188 4.03129 37.7189 7.1208 43.2291 10.194C45.4271 11.4193 46.5283 13.2096 46.4981 15.6856C46.4693 17.9947 46.4981 20.3038 46.4981 22.6114C46.5039 22.7865 46.4967 22.9617 46.4765 23.1358C46.4629 23.322 46.3772 23.4962 46.2365 23.623C46.0959 23.7498 45.9109 23.8197 45.7193 23.8185C45.2875 23.8452 44.9996 23.6167 44.8859 23.2185C44.8495 23.0475 44.8369 22.8726 44.8485 22.6984C44.8485 20.2841 44.8485 17.8704 44.8485 15.4571C44.8485 13.8083 44.1287 12.5662 42.6634 11.7432C37.0265 8.57 31.3878 5.39914 25.7471 2.23063C24.2256 1.37402 22.7242 1.39928 21.2099 2.2573C15.6854 5.3772 10.1541 8.48449 4.61605 11.5792C2.9391 12.5129 2.14311 13.8349 2.15319 15.7276C2.18773 21.9357 2.18773 28.1442 2.15319 34.3531C2.14599 36.1365 2.90745 37.4193 4.48796 38.304C10.1037 41.4444 15.7127 44.5956 21.315 47.7576C22.7545 48.5693 24.2112 48.5806 25.6592 47.7674C31.3307 44.5821 37.0011 41.3949 42.6706 38.2058C44.11 37.3941 44.8399 36.1659 44.8413 34.5382C44.8413 33.3676 44.8413 32.1955 44.8413 31.0234C44.8413 30.3645 45.1291 30.0154 45.6675 30.014C46.2058 30.0126 46.4851 30.3561 46.488 31.022C46.4952 32.2277 46.5082 33.4348 46.488 34.642C46.4477 36.8319 45.4458 38.4974 43.5026 39.5938C37.8225 42.7987 32.1367 45.9944 26.4452 49.1806C24.5163 50.2602 22.5299 50.2784 20.5996 49.2031C14.8419 45.9897 9.09512 42.7562 3.35942 39.5027C1.43921 38.4105 0.516519 36.6987 0.512201 34.5298C0.500685 31.3473 0.497317 28.1643 0.502115 24.9808Z" fill="url(#paint0_linear_38_5547)"/>
<path d="M6.27085 24.9358C6.27085 21.9916 6.28092 19.0587 6.26221 16.1215C6.26221 15.5481 6.46085 15.185 6.98193 14.8962C12.2551 11.9464 17.521 8.9844 22.7798 6.0103C23.2951 5.71869 23.7198 5.7299 24.2279 6.0103C29.4876 8.98253 34.7536 11.944 40.0258 14.8948C40.5181 15.1752 40.734 15.5172 40.7325 16.0738C40.721 22.0024 40.721 27.9319 40.7325 33.8624C40.7325 34.4147 40.5368 34.7722 40.0416 35.0498C34.7387 38.0193 29.4411 40.9976 24.1487 43.9847C23.9549 44.1092 23.7277 44.175 23.4956 44.1737C23.2634 44.1725 23.0369 44.1043 22.8446 43.9777C17.5513 40.9868 12.2536 38.0085 6.95171 35.0428C6.45078 34.7624 6.26221 34.4035 6.26653 33.8525C6.27948 30.8831 6.27085 27.9095 6.27085 24.9358ZM39.0585 24.9863C39.0585 22.2412 39.0585 19.4961 39.0671 16.751C39.0671 16.3767 38.9664 16.1552 38.6195 15.9617C33.7196 13.2241 28.8255 10.4747 23.9371 7.71375C23.8117 7.62542 23.6612 7.5773 23.5064 7.57605C23.3517 7.57479 23.2004 7.62046 23.0735 7.70673C18.188 10.4687 13.2939 13.2194 8.39115 15.9589C8.05432 16.1468 7.92189 16.3486 7.92333 16.7342C7.93676 22.2244 7.93676 27.7151 7.92333 33.2062C7.92333 33.6268 8.06727 33.8203 8.42425 34.0166C13.2924 36.7374 18.1534 39.4712 23.0072 42.2182C23.393 42.4369 23.6564 42.4089 24.0221 42.2014C28.8931 39.4488 33.7704 36.707 38.654 33.9759C38.7887 33.9149 38.9007 33.8147 38.9747 33.6892C39.0486 33.5637 39.081 33.419 39.0671 33.2749C39.0527 30.513 39.0585 27.7496 39.0585 24.9863Z" fill="url(#paint1_linear_38_5547)"/>
<path d="M46.4873 26.9366C46.4873 27.5773 46.1764 27.9376 45.6453 27.918C45.1141 27.8984 44.8334 27.5339 44.8377 26.8903C44.842 26.2468 45.15 25.8977 45.687 25.909C46.2239 25.9202 46.4931 26.2734 46.4873 26.9366Z" fill="url(#paint2_linear_38_5547)"/>
<path d="M23.452 13.2461C23.9169 13.2461 24.1515 13.5069 24.353 13.8447C25.8242 16.3253 27.3001 18.8022 28.7808 21.2753C29.3925 22.303 29.9957 23.3363 30.6218 24.3597C30.8924 24.7999 30.8824 25.1897 30.6218 25.6327C28.5231 29.1302 26.4316 32.6329 24.3473 36.1407C23.8363 36.9945 23.1597 36.9819 22.643 36.1155C20.551 32.6123 18.4595 29.1073 16.3685 25.6005C16.2432 25.4202 16.1763 25.2075 16.1763 24.9899C16.1763 24.7722 16.2432 24.5596 16.3685 24.3793C18.4796 20.8482 20.587 17.3138 22.6905 13.7761C22.8675 13.4592 23.1065 13.2601 23.452 13.2461ZM23.4836 27.5633C23.5772 27.5226 23.6765 27.4876 23.7715 27.4385C25.388 26.5707 26.9973 25.6958 28.6195 24.8392C28.9074 24.6878 28.8312 24.5588 28.7102 24.3555C27.052 21.5824 25.3981 18.8059 23.7485 16.0263C23.5398 15.673 23.4476 15.6968 23.249 16.0263C21.6128 18.7919 19.9656 21.552 18.3074 24.3064C18.1275 24.6064 18.1634 24.727 18.4772 24.8883C20.0376 25.707 21.585 26.551 23.1367 27.3852C23.2432 27.4427 23.3555 27.4932 23.4836 27.5563V27.5633ZM19.3668 27.2016L19.2948 27.2745C19.3409 27.3642 19.3812 27.4567 19.4388 27.5436C20.7084 29.6691 21.9866 31.7903 23.2404 33.9241C23.4678 34.3097 23.5613 34.2676 23.7686 33.9171C25.0166 31.8001 26.2819 29.6929 27.5371 27.5787C27.5961 27.4763 27.7544 27.381 27.6292 27.2086C26.5424 27.7932 25.4427 28.3442 24.389 28.9695C23.7557 29.3452 23.2303 29.3284 22.6041 28.9583C21.5447 28.3288 20.4464 27.7764 19.3668 27.1945V27.2016Z" fill="url(#paint3_linear_38_5547)"/>
<defs>
<linearGradient id="paint0_linear_38_5547" x1="23.5" y1="0" x2="23.5" y2="50" gradientUnits="userSpaceOnUse">
<stop stop-color="#01D6FE"/>
<stop offset="0.3125" stop-color="#008BD9"/>
<stop offset="1" stop-color="#10FFB7"/>
</linearGradient>
<linearGradient id="paint1_linear_38_5547" x1="23.4974" y1="5.79578" x2="23.4974" y2="44.1737" gradientUnits="userSpaceOnUse">
<stop stop-color="#01D6FE"/>
<stop offset="0.3125" stop-color="#008BD9"/>
<stop offset="1" stop-color="#10FFB7"/>
</linearGradient>
<linearGradient id="paint2_linear_38_5547" x1="45.6625" y1="25.9087" x2="45.6625" y2="27.9188" gradientUnits="userSpaceOnUse">
<stop stop-color="#01D6FE"/>
<stop offset="0.3125" stop-color="#008BD9"/>
<stop offset="1" stop-color="#10FFB7"/>
</linearGradient>
<linearGradient id="paint3_linear_38_5547" x1="23.4986" y1="13.2461" x2="23.4986" y2="36.7732" gradientUnits="userSpaceOnUse">
<stop stop-color="#01D6FE"/>
<stop offset="0.3125" stop-color="#008BD9"/>
<stop offset="1" stop-color="#10FFB7"/>
</linearGradient>
</defs>
</svg>
