<svg width="256" height="69" viewBox="0 0 256 69" fill="none" xmlns="http://www.w3.org/2000/svg">
<g clip-path="url(#clip0_266_518)">
<path opacity="0.75" d="M12.4607 63.0068C6.37541 62.0621 2.39071 59.5969 0.757477 55.7097C-1.65794 49.9626 1.74135 42.7393 10.5963 34.8124C18.5411 27.6876 30.1016 20.7448 43.1478 15.2633C56.194 9.78192 69.2452 6.37693 79.8957 5.68806C91.7465 4.92046 99.283 7.54801 101.698 13.2902C104.109 19.0373 100.715 26.2606 91.8596 34.1875C83.9099 41.3124 72.3493 48.2552 59.3031 53.7366C46.2569 59.2181 33.2304 62.623 22.5602 63.3119C19.1926 63.5752 15.8063 63.473 12.4607 63.0068ZM89.031 11.8338C86.1267 11.4328 83.1878 11.3438 80.2646 11.568C70.2586 12.2176 57.8863 15.4601 45.4255 20.6955C32.9647 25.9309 21.9945 32.5047 14.5268 39.1966C8.13163 44.9388 4.92912 50.3858 6.19832 53.4119C7.46752 56.438 13.5774 57.9683 22.1765 57.4122C32.1874 56.7627 44.5597 53.5201 57.0156 48.2847C69.4715 43.0493 80.4466 36.4756 87.9192 29.7837C94.3144 24.0415 97.5169 18.5945 96.2428 15.5684C95.4704 13.7331 92.8828 12.439 89.031 11.8436V11.8338Z" fill="url(#paint0_radial_266_518)"/>
<path d="M32.4187 56.0295C31.6711 55.3753 30.9584 54.6822 30.2836 53.9531C28.6006 52.1349 27.1588 50.1074 25.9939 47.9206C28.5422 45.2783 38.376 40.2791 48.7117 36.4903C49.0758 36.3569 49.41 36.1531 49.6953 35.8905C49.9807 35.6279 50.2115 35.3117 50.3745 34.9598C50.5376 34.608 50.6298 34.2274 50.6459 33.8399C50.6619 33.4525 50.6014 33.0656 50.4679 32.7015C50.3346 32.3373 50.1308 32.003 49.8683 31.7176C49.6057 31.4322 49.2896 31.2014 48.9378 31.0382C48.586 30.8751 48.2056 30.7829 47.8182 30.7669C47.4308 30.7509 47.044 30.8114 46.68 30.9449C46.434 31.0384 40.5996 33.1837 34.47 36.0573C29.2309 38.5175 25.871 40.5152 23.6966 42.1833C22.7294 38.734 22.4239 35.1327 22.7963 31.5698C22.8505 31.0433 22.9144 30.5857 22.9833 30.0936C24.1534 22.6031 28.2469 15.8829 34.3654 11.4079C40.4838 6.93288 48.1273 5.06865 55.6185 6.22435C56.6611 6.38554 57.6941 6.60402 58.7128 6.87879C59.4682 7.08354 60.274 6.97982 60.953 6.59043C61.6319 6.20104 62.1285 5.55786 62.3335 4.80234C62.5383 4.04742 62.4353 3.24202 62.047 2.56301C61.6587 1.88401 61.0168 1.3869 60.2624 1.18085C59.0317 0.847923 57.7836 0.583459 56.5237 0.388661C47.4886 -0.999037 38.272 1.25336 30.8946 6.65203C23.5173 12.0507 18.5812 20.1551 17.1686 29.1883C17.0849 29.7295 17.0111 30.2954 16.9423 30.9252C16.3223 36.8969 17.2737 42.927 19.7021 48.4175C19.7986 48.9243 20.022 49.3983 20.3514 49.7953C21.6575 52.4339 23.2958 54.8944 25.2265 57.117C26.8352 56.93 30.0869 56.4822 32.4187 56.0295Z" fill="url(#paint1_radial_266_518)"/>
<path d="M77.2885 11.8977C77.2639 11.8633 77.2344 11.8338 77.2049 11.7993C75.3502 11.9666 72.3937 12.5128 70.0619 12.9852C70.1117 13.0235 70.1593 13.0646 70.2046 13.1082C73.6027 16.1159 76.2326 19.8927 77.8748 24.1236C79.5169 28.3545 80.1239 32.9169 79.6449 37.4301C79.5908 37.9517 79.5268 38.4142 79.4579 38.9063C78.2866 46.3962 74.1928 53.1156 68.0746 57.5904C61.9565 62.0652 54.3137 63.9299 46.8227 62.7756C44.2241 62.3664 41.6945 61.5997 39.3059 60.4974C39.3059 60.4974 33.0829 61.9046 30.8003 62.3179C35.2607 65.588 40.4424 67.7364 45.9077 68.5817C54.943 69.9708 64.1603 67.7189 71.5379 62.32C78.9156 56.9211 83.8514 48.8159 85.2628 39.7821C85.3514 39.236 85.4252 38.6701 85.4891 38.0452C85.9929 33.3571 85.5247 28.6154 84.1137 24.1165C82.7027 19.6175 80.3793 15.458 77.2885 11.8977Z" fill="url(#paint2_radial_266_518)"/>
<path d="M111.906 11.6517H125.946C126.116 11.6517 126.279 11.719 126.4 11.8388C126.521 11.9586 126.589 12.1213 126.59 12.2914V16.0556C126.589 16.2257 126.521 16.3884 126.4 16.5082C126.279 16.628 126.116 16.6952 125.946 16.6952H116.953C116.783 16.6965 116.621 16.765 116.501 16.8858C116.381 17.0065 116.314 17.1697 116.314 17.3398V24.1744C116.313 24.2588 116.329 24.3425 116.361 24.4207C116.393 24.4988 116.44 24.5699 116.499 24.6299C116.559 24.6898 116.63 24.7373 116.708 24.7698C116.785 24.8023 116.869 24.8189 116.953 24.8189H121.838C121.94 24.8198 122.041 24.8448 122.131 24.8919C122.221 24.939 122.299 25.0069 122.358 25.09C122.417 25.1731 122.456 25.269 122.471 25.3698C122.485 25.4707 122.476 25.5736 122.443 25.6702L121.233 29.2031C121.19 29.3302 121.108 29.4404 120.998 29.5181C120.889 29.5958 120.758 29.6371 120.623 29.6361H116.953C116.783 29.6374 116.621 29.7059 116.501 29.8266C116.381 29.9474 116.314 30.1106 116.314 30.2807V43.1281C116.313 43.2982 116.244 43.4609 116.123 43.5807C116.003 43.7005 115.839 43.7678 115.669 43.7677H111.906C111.737 43.7677 111.574 43.7004 111.454 43.5804C111.334 43.4604 111.267 43.2977 111.267 43.1281V12.2914C111.267 12.1217 111.334 11.959 111.454 11.8391C111.574 11.7191 111.737 11.6517 111.906 11.6517Z" fill="white"/>
<path d="M133.399 16.587L131.795 16.5329C131.629 16.5278 131.472 16.4581 131.356 16.3387C131.24 16.2193 131.175 16.0595 131.176 15.8932V12.2914C131.176 12.207 131.192 12.1234 131.225 12.0455C131.257 11.9675 131.305 11.8968 131.365 11.8374C131.424 11.7779 131.496 11.7309 131.574 11.699C131.652 11.6672 131.736 11.6511 131.82 11.6518H138.427C138.596 11.6518 138.759 11.7191 138.879 11.8391C138.999 11.9591 139.066 12.1218 139.066 12.2914V43.1281C139.066 43.2977 138.999 43.4605 138.879 43.5804C138.759 43.7004 138.596 43.7678 138.427 43.7678H134.663C134.493 43.7678 134.33 43.7005 134.209 43.5807C134.089 43.4609 134.02 43.2982 134.019 43.1281V17.2267C134.019 17.0604 133.954 16.9006 133.839 16.7812C133.723 16.6617 133.565 16.5921 133.399 16.587Z" fill="white"/>
<path d="M151.36 24.4991V43.1478C151.36 43.3174 151.292 43.4801 151.172 43.6001C151.053 43.72 150.89 43.7874 150.72 43.7874H146.957C146.787 43.7874 146.624 43.7202 146.503 43.6004C146.382 43.4806 146.314 43.3179 146.312 43.1478V12.2914C146.314 12.1213 146.382 11.9586 146.503 11.8388C146.624 11.719 146.787 11.6517 146.957 11.6517H150.991C151.103 11.6519 151.214 11.6815 151.311 11.7376C151.409 11.7937 151.49 11.8744 151.547 11.9716L162.596 31.1369C162.666 31.2598 162.774 31.3562 162.905 31.4107C163.035 31.4653 163.18 31.4751 163.317 31.4386C163.453 31.402 163.574 31.3212 163.66 31.2087C163.746 31.0962 163.792 30.9585 163.791 30.817V12.2914C163.792 12.1213 163.861 11.9586 163.982 11.8388C164.102 11.719 164.265 11.6517 164.436 11.6517H168.243C168.413 11.6517 168.575 11.7191 168.695 11.8391C168.815 11.959 168.883 12.1217 168.883 12.2914V43.1281C168.883 43.2977 168.815 43.4604 168.695 43.5804C168.575 43.7004 168.413 43.7677 168.243 43.7677H164.165C164.052 43.7681 163.942 43.7387 163.844 43.6826C163.746 43.6264 163.665 43.5455 163.609 43.4479L152.56 24.1596C152.488 24.0365 152.377 23.9408 152.245 23.8875C152.112 23.8342 151.966 23.8263 151.829 23.8652C151.691 23.904 151.571 23.9873 151.486 24.1021C151.401 24.2168 151.357 24.3564 151.36 24.4991Z" fill="white"/>
<path d="M184.526 44.2303C181.863 44.2303 179.707 43.5266 178.057 42.1194C176.408 40.7121 175.588 38.4635 175.597 35.3734V20.6415C175.597 18.319 175.925 16.5607 176.581 15.3667C177.301 14.1108 178.337 13.0657 179.587 12.3357C181.109 11.5404 182.811 11.1539 184.526 11.2138C186.581 11.189 188.615 11.6192 190.484 12.4735C190.626 12.5383 190.741 12.6531 190.805 12.7962C190.869 12.9393 190.879 13.101 190.833 13.2509L189.77 16.6952C189.747 16.7754 189.707 16.8501 189.655 16.9149C189.602 16.9798 189.537 17.0334 189.463 17.0728C189.389 17.1122 189.308 17.1365 189.225 17.1444C189.142 17.1522 189.058 17.1434 188.978 17.1184C187.668 16.7252 186.307 16.5312 184.939 16.5427C183.804 16.492 182.691 16.8696 181.821 17.6006C181.437 17.9272 181.131 18.3352 180.926 18.7948C180.72 19.2544 180.619 19.7541 180.63 20.2577V35.3094C180.63 37.8779 182.066 39.1638 184.939 39.1671C185.866 39.1646 186.789 39.064 187.694 38.867C188.472 38.6997 189.467 38.4602 190.68 38.1486C190.767 38.1254 190.857 38.1206 190.946 38.1346C191.034 38.1486 191.119 38.181 191.194 38.2297C191.269 38.2784 191.333 38.3423 191.382 38.4173C191.431 38.4924 191.463 38.5768 191.477 38.6652L192.058 42.2178C192.082 42.3661 192.053 42.5181 191.976 42.6475C191.9 42.7769 191.781 42.8755 191.64 42.9264C189.358 43.7569 186.954 44.1977 184.526 44.2303Z" fill="white"/>
<path d="M207.145 34.8322H201.547C201.377 34.8322 201.214 34.8994 201.093 35.0192C200.972 35.1391 200.904 35.3017 200.903 35.4718V43.138C200.903 43.3076 200.835 43.4703 200.715 43.5903C200.595 43.7102 200.433 43.7776 200.263 43.7776H196.5C196.33 43.7776 196.168 43.7102 196.048 43.5903C195.928 43.4703 195.86 43.3076 195.86 43.138V12.2914C195.86 12.1218 195.928 11.9591 196.048 11.8391C196.168 11.7192 196.33 11.6518 196.5 11.6518H206.732C208.53 11.5818 210.302 12.1 211.779 13.1279C213.136 14.138 214.177 15.5136 214.78 17.0938C215.454 18.8349 215.788 20.6888 215.764 22.5556C215.772 23.8585 215.711 25.161 215.582 26.4575C215.437 27.6455 215.118 28.8058 214.638 29.9019C214.159 31.0238 213.446 32.0304 212.547 32.8542C212.455 32.9379 212.388 33.0465 212.356 33.1669C212.324 33.2873 212.327 33.4145 212.365 33.5332L215.523 42.9313C215.556 43.0276 215.565 43.1303 215.551 43.231C215.536 43.3316 215.497 43.4273 215.438 43.5101C215.379 43.5928 215.301 43.6602 215.21 43.7068C215.12 43.7533 215.02 43.7776 214.918 43.7776H211.13C210.997 43.7783 210.866 43.7369 210.758 43.6591C210.649 43.5814 210.568 43.4713 210.525 43.3446L207.746 35.2652C207.703 35.1393 207.623 35.0298 207.515 34.9521C207.407 34.8745 207.278 34.8325 207.145 34.8322ZM208.862 28.8439C209.564 28.101 210.028 27.1656 210.195 26.1574C210.376 24.9737 210.46 23.7774 210.446 22.5802C210.446 20.9613 210.22 19.7263 209.758 18.8849C209.357 18.0942 208.668 17.4869 207.834 17.1873C206.794 16.8673 205.709 16.721 204.622 16.7543H201.547C201.377 16.7543 201.214 16.8215 201.093 16.9414C200.972 17.0612 200.904 17.2239 200.903 17.394V29.3704C200.903 29.5414 200.971 29.7054 201.091 29.8262C201.212 29.9471 201.376 30.015 201.547 30.015H205.537C207.057 30.0052 208.144 29.6115 208.862 28.8341V28.8439Z" fill="white"/>
<path d="M223.178 16.587L221.574 16.5328C221.408 16.5277 221.25 16.4581 221.135 16.3387C221.019 16.2193 220.954 16.0595 220.954 15.8932V12.2914C220.954 12.1217 221.022 11.959 221.142 11.8391C221.262 11.7191 221.424 11.6517 221.594 11.6517H228.21C228.381 11.6517 228.544 11.719 228.664 11.8388C228.785 11.9586 228.854 12.1213 228.855 12.2914V43.1281C228.854 43.2982 228.785 43.4609 228.664 43.5807C228.544 43.7005 228.381 43.7678 228.21 43.7677H224.447C224.277 43.7677 224.115 43.7004 223.995 43.5804C223.875 43.4604 223.808 43.2977 223.808 43.1281V17.2266C223.808 17.0587 223.742 16.8975 223.624 16.7778C223.506 16.6581 223.346 16.5896 223.178 16.587Z" fill="white"/>
<path d="M236.081 12.2914C236.081 12.1217 236.149 11.959 236.269 11.8391C236.389 11.7191 236.551 11.6517 236.721 11.6517H246.56C249.774 11.6517 252.151 12.6834 253.693 14.7467C255.234 16.81 256.006 19.4031 256.01 22.526C256.01 30.7268 252.997 34.8272 246.973 34.8272H241.788C241.618 34.8272 241.456 34.8946 241.336 35.0146C241.216 35.1345 241.148 35.2972 241.148 35.4669V43.133C241.147 43.3031 241.079 43.4658 240.958 43.5856C240.837 43.7054 240.674 43.7727 240.504 43.7727H236.74C236.571 43.7727 236.408 43.7053 236.288 43.5853C236.168 43.4654 236.101 43.3027 236.101 43.133L236.081 12.2914ZM249.27 28.8587C250.032 28.183 250.542 27.2688 250.716 26.2656C250.884 25.0561 250.96 23.8356 250.943 22.6146C251.008 21.3338 250.78 20.0551 250.279 18.875C249.906 18.0696 249.231 17.4437 248.399 17.1331C247.384 16.8118 246.321 16.6638 245.256 16.6952H241.768C241.598 16.6965 241.435 16.765 241.316 16.8858C241.196 17.0065 241.129 17.1697 241.129 17.3398V29.3606C241.129 29.5307 241.196 29.6939 241.316 29.8146C241.435 29.9354 241.598 30.0038 241.768 30.0051H245.428C247.194 30.0051 248.468 29.6213 249.28 28.8587H249.27Z" fill="white"/>
<path d="M111.031 47.1334C111.032 47.0755 111.056 47.0204 111.097 46.98C111.138 46.9395 111.194 46.9168 111.252 46.9169H114.523C114.975 46.8819 115.428 46.9578 115.844 47.1379C116.26 47.3179 116.626 47.5968 116.909 47.9502C117.445 48.7079 117.716 49.6208 117.682 50.5482C117.682 53.2872 116.676 54.6568 114.666 54.6568H112.934C112.876 54.6581 112.821 54.682 112.781 54.7234C112.741 54.7647 112.718 54.8203 112.718 54.8782V57.4319C112.717 57.4898 112.693 57.5449 112.651 57.5853C112.61 57.6258 112.554 57.6484 112.497 57.6484H111.252C111.194 57.6484 111.138 57.6258 111.097 57.5853C111.056 57.5449 111.032 57.4898 111.031 57.4319V47.1334ZM115.458 52.664C115.717 52.441 115.891 52.1349 115.95 51.798C116.006 51.3954 116.033 50.9891 116.029 50.5826C116.049 50.1542 115.972 49.7268 115.802 49.3328C115.679 49.0633 115.454 48.8531 115.178 48.7473C114.822 48.6399 114.451 48.5933 114.081 48.6095H112.92C112.862 48.6095 112.807 48.6323 112.767 48.6729C112.726 48.7135 112.703 48.7686 112.703 48.826V52.8362C112.703 52.8936 112.726 52.9487 112.767 52.9893C112.807 53.0299 112.862 53.0527 112.92 53.0527H114.144C114.611 53.0917 115.075 52.9489 115.438 52.6541L115.458 52.664Z" fill="black"/>
<path d="M123.245 54.6469H121.381C121.322 54.6469 121.266 54.6702 121.224 54.7117C121.183 54.7533 121.16 54.8096 121.16 54.8683V57.4221C121.16 57.4795 121.137 57.5345 121.096 57.5751C121.055 57.6157 121 57.6386 120.943 57.6386H119.694C119.636 57.6386 119.581 57.6157 119.54 57.5751C119.5 57.5345 119.477 57.4795 119.477 57.4221V47.1333C119.477 47.0759 119.5 47.0208 119.54 46.9802C119.581 46.9396 119.636 46.9168 119.694 46.9168H123.108C123.708 46.8947 124.3 47.0673 124.795 47.4089C125.24 47.7518 125.581 48.2118 125.779 48.7374C126.005 49.3191 126.117 49.9389 126.108 50.5629C126.113 50.9968 126.091 51.4305 126.044 51.8619C125.998 52.2587 125.893 52.6466 125.735 53.0133C125.572 53.3859 125.334 53.721 125.036 53.9974C125.005 54.0253 124.983 54.0613 124.971 54.1014C124.96 54.1414 124.96 54.1838 124.972 54.2237L126.025 57.3581C126.037 57.391 126.041 57.4264 126.036 57.4611C126.031 57.4959 126.018 57.5289 125.998 57.5575C125.977 57.586 125.95 57.6092 125.919 57.6251C125.888 57.6409 125.853 57.6489 125.818 57.6484H124.564C124.518 57.6487 124.474 57.6346 124.436 57.6081C124.399 57.5816 124.372 57.544 124.357 57.5008L123.432 54.8044C123.42 54.7627 123.396 54.7255 123.362 54.6975C123.329 54.6695 123.288 54.6519 123.245 54.6469ZM123.821 52.6492C124.055 52.4018 124.209 52.0898 124.264 51.7537C124.327 51.3583 124.357 50.9583 124.352 50.558C124.375 50.1337 124.296 49.7101 124.121 49.3229C123.987 49.058 123.756 48.8552 123.477 48.7571C123.13 48.6484 122.767 48.5985 122.404 48.6095H121.381C121.323 48.6094 121.267 48.6321 121.226 48.6726C121.185 48.713 121.161 48.7681 121.16 48.826V52.8214C121.161 52.8793 121.185 52.9343 121.226 52.9748C121.267 53.0153 121.323 53.0379 121.381 53.0379H122.709C122.911 53.055 123.115 53.0293 123.307 52.9623C123.498 52.8953 123.673 52.7886 123.821 52.6492Z" fill="black"/>
<path d="M132.833 57.0776C132.184 57.5707 131.386 57.8275 130.571 57.8059C130.036 57.8093 129.507 57.709 129.011 57.5106C128.521 57.3092 128.101 56.9667 127.806 56.5265C127.477 56.0105 127.314 55.4061 127.338 54.7945V49.8741C127.307 49.437 127.368 48.9984 127.518 48.5864C127.667 48.1745 127.901 47.7985 128.204 47.4827C128.864 46.9118 129.72 46.6205 130.59 46.6708C131.02 46.644 131.451 46.7067 131.856 46.8549C132.261 47.0031 132.63 47.2337 132.942 47.5319C133.23 47.8497 133.453 48.2217 133.597 48.6263C133.74 49.031 133.802 49.4601 133.778 49.8888V54.8093C133.812 55.2353 133.744 55.6633 133.58 56.0578C133.416 56.4523 133.16 56.8019 132.833 57.0776ZM131.982 49.3771C131.919 49.1123 131.762 48.8796 131.54 48.7227C131.243 48.5463 130.9 48.4639 130.556 48.4865C130.212 48.4649 129.87 48.5453 129.572 48.7177C129.349 48.8654 129.191 49.0924 129.129 49.3525C129.047 49.7023 129.011 50.0611 129.021 50.4202V54.5141C128.996 54.9342 129.13 55.3484 129.395 55.6753C129.546 55.824 129.728 55.9384 129.927 56.0106C130.127 56.0827 130.339 56.111 130.551 56.0935C130.759 56.1036 130.967 56.0693 131.162 55.993C131.356 55.9166 131.532 55.8 131.677 55.6507C131.959 55.3291 132.105 54.9114 132.086 54.4845V50.4399C132.097 50.0827 132.062 49.7255 131.982 49.3771Z" fill="black"/>
<path d="M136.439 48.6095H134.668C134.64 48.6095 134.612 48.6039 134.585 48.593C134.559 48.5822 134.535 48.5662 134.515 48.5461C134.495 48.526 134.479 48.5021 134.468 48.4759C134.457 48.4496 134.452 48.4214 134.452 48.393V47.1334C134.452 47.1049 134.457 47.0768 134.468 47.0505C134.479 47.0243 134.495 47.0004 134.515 46.9803C134.535 46.9602 134.559 46.9442 134.585 46.9334C134.612 46.9225 134.64 46.9169 134.668 46.9169H140.394C140.452 46.9169 140.507 46.9397 140.547 46.9803C140.588 47.0209 140.611 47.076 140.611 47.1334V48.4029C140.611 48.4603 140.588 48.5153 140.547 48.5559C140.507 48.5965 140.452 48.6194 140.394 48.6194H138.564C138.506 48.6193 138.451 48.642 138.409 48.6825C138.368 48.7229 138.344 48.778 138.343 48.8359V57.4319C138.343 57.4894 138.32 57.5444 138.28 57.585C138.239 57.6256 138.184 57.6485 138.126 57.6485H136.877C136.819 57.6485 136.763 57.6258 136.722 57.5854C136.681 57.5449 136.657 57.4898 136.656 57.4319V48.826C136.656 48.7686 136.633 48.7135 136.592 48.6729C136.552 48.6323 136.497 48.6095 136.439 48.6095Z" fill="black"/>
<path d="M146.765 57.0776C146.117 57.5699 145.321 57.8268 144.507 57.8059C143.971 57.8093 143.44 57.7091 142.943 57.5106C142.453 57.308 142.034 56.9657 141.737 56.5266C141.4 56.0133 141.228 55.4087 141.245 54.7945V49.8741C141.214 49.437 141.275 48.9984 141.425 48.5864C141.574 48.1745 141.808 47.7985 142.111 47.4827C142.771 46.9122 143.627 46.621 144.497 46.6708C144.927 46.644 145.358 46.7067 145.763 46.8549C146.168 47.0031 146.537 47.2337 146.849 47.5319C147.137 47.8497 147.36 48.2217 147.503 48.6263C147.647 49.031 147.709 49.4601 147.685 49.8888V54.8093C147.722 55.2333 147.658 55.66 147.498 56.0544C147.338 56.4487 147.087 56.7995 146.765 57.0776ZM145.914 49.3771C145.853 49.1115 145.695 48.8782 145.471 48.7227C145.175 48.546 144.832 48.4636 144.487 48.4865C144.144 48.4652 143.802 48.5456 143.503 48.7177C143.281 48.8654 143.122 49.0924 143.061 49.3525C142.979 49.7023 142.943 50.0611 142.952 50.4202V54.5141C142.928 54.9342 143.061 55.3484 143.326 55.6753C143.478 55.8247 143.661 55.9394 143.861 56.0116C144.061 56.0838 144.275 56.1118 144.487 56.0935C144.695 56.1048 144.903 56.071 145.096 55.9946C145.29 55.9182 145.465 55.8009 145.609 55.6507C145.89 55.3291 146.036 54.9114 146.017 54.4846V50.4399C146.028 50.0827 145.994 49.7255 145.914 49.3771Z" fill="black"/>
<path d="M152.722 57.7911C151.939 57.8264 151.17 57.5764 150.558 57.0875C150.262 56.7962 150.035 56.4431 149.892 56.0534C149.749 55.6638 149.694 55.2473 149.731 54.8339V49.9134C149.696 49.3065 149.809 48.7001 150.061 48.147C150.297 47.7317 150.636 47.3842 151.045 47.1383C151.554 46.8678 152.126 46.7355 152.703 46.7545C153.382 46.7499 154.053 46.8944 154.67 47.1776C154.719 47.2002 154.757 47.2398 154.778 47.2888C154.799 47.3379 154.801 47.3929 154.783 47.4433L154.434 48.58C154.416 48.6351 154.377 48.681 154.326 48.7076C154.274 48.7343 154.214 48.7397 154.159 48.7227C153.725 48.5918 153.274 48.5271 152.821 48.5308H152.796C152.41 48.5461 152.045 48.7125 151.78 48.994C151.515 49.2756 151.371 49.6499 151.379 50.0364V54.8044C151.379 55.6605 151.871 56.0886 152.821 56.0886C153.13 56.0897 153.438 56.0567 153.741 55.9902C153.996 55.9345 154.324 55.8557 154.724 55.754C154.754 55.7452 154.785 55.7428 154.815 55.7469C154.846 55.7511 154.875 55.7616 154.901 55.7779C154.927 55.7942 154.949 55.8158 154.966 55.8414C154.984 55.867 154.995 55.8959 155 55.9263L155.192 57.1023C155.199 57.154 155.189 57.2068 155.162 57.2516C155.135 57.2965 155.093 57.3306 155.044 57.3483C154.3 57.6231 153.515 57.7728 152.722 57.7911Z" fill="black"/>
<path d="M161.769 57.0776C161.121 57.5706 160.325 57.8276 159.511 57.8059C158.976 57.8088 158.444 57.7086 157.947 57.5106C157.457 57.308 157.038 56.9657 156.742 56.5265C156.404 56.0133 156.232 55.4087 156.25 54.7945V49.8741C156.219 49.437 156.28 48.9984 156.429 48.5864C156.578 48.1745 156.812 47.7985 157.115 47.4827C157.775 46.9122 158.631 46.621 159.501 46.6708C159.931 46.644 160.363 46.7067 160.767 46.8549C161.172 47.0031 161.542 47.2337 161.853 47.5319C162.141 47.8497 162.364 48.2217 162.508 48.6263C162.651 49.031 162.713 49.4601 162.689 49.8888V54.8093C162.726 55.2333 162.662 55.66 162.502 56.0544C162.342 56.4487 162.091 56.7994 161.769 57.0776ZM160.918 49.3771C160.857 49.1115 160.699 48.8782 160.475 48.7227C160.179 48.546 159.836 48.4636 159.491 48.4865C159.148 48.4652 158.806 48.5456 158.508 48.7177C158.286 48.8668 158.128 49.0932 158.065 49.3525C157.983 49.7023 157.947 50.0611 157.957 50.4202V54.5141C157.932 54.9342 158.065 55.3484 158.331 55.6753C158.482 55.8247 158.665 55.9394 158.865 56.0116C159.066 56.0838 159.279 56.1118 159.491 56.0935C159.7 56.1036 159.908 56.0693 160.102 55.993C160.296 55.9166 160.472 55.8 160.618 55.6507C160.897 55.3284 161.042 54.9107 161.021 54.4845V50.4399C161.033 50.0827 160.998 49.7255 160.918 49.3771Z" fill="black"/>
<path d="M165.139 46.907H166.388C166.446 46.907 166.501 46.9298 166.541 46.9704C166.582 47.011 166.605 47.0661 166.605 47.1235V55.8721C166.606 55.93 166.63 55.985 166.671 56.0255C166.713 56.066 166.768 56.0886 166.826 56.0886H170.235C170.293 56.0899 170.348 56.1138 170.389 56.1552C170.429 56.1966 170.452 56.2521 170.452 56.31V57.4221C170.452 57.4505 170.446 57.4786 170.435 57.5049C170.424 57.5312 170.408 57.555 170.388 57.5751C170.368 57.5953 170.344 57.6112 170.318 57.6221C170.292 57.633 170.264 57.6386 170.235 57.6386H165.139C165.081 57.6386 165.026 57.6157 164.986 57.5751C164.945 57.5345 164.922 57.4795 164.922 57.4221V47.1333C164.921 47.1041 164.926 47.0749 164.936 47.0474C164.946 47.02 164.962 46.995 164.982 46.9738C165.002 46.9527 165.027 46.9358 165.054 46.9243C165.081 46.9129 165.11 46.907 165.139 46.907Z" fill="black"/>
<path d="M111.031 47.1334C111.032 47.0755 111.056 47.0204 111.097 46.98C111.138 46.9395 111.194 46.9168 111.252 46.9169H114.523C114.975 46.8819 115.428 46.9578 115.844 47.1379C116.26 47.3179 116.626 47.5968 116.909 47.9502C117.445 48.7079 117.716 49.6208 117.682 50.5482C117.682 53.2872 116.676 54.6568 114.666 54.6568H112.934C112.876 54.6581 112.821 54.682 112.781 54.7234C112.741 54.7647 112.718 54.8203 112.718 54.8782V57.4319C112.717 57.4898 112.693 57.5449 112.651 57.5853C112.61 57.6258 112.554 57.6484 112.497 57.6484H111.252C111.194 57.6484 111.138 57.6258 111.097 57.5853C111.056 57.5449 111.032 57.4898 111.031 57.4319V47.1334ZM115.458 52.664C115.717 52.441 115.891 52.1349 115.95 51.798C116.006 51.3954 116.033 50.9891 116.029 50.5826C116.049 50.1542 115.972 49.7268 115.802 49.3328C115.679 49.0633 115.454 48.8531 115.178 48.7473C114.822 48.6399 114.451 48.5933 114.081 48.6095H112.92C112.862 48.6095 112.807 48.6323 112.767 48.6729C112.726 48.7135 112.703 48.7686 112.703 48.826V52.8362C112.703 52.8936 112.726 52.9487 112.767 52.9893C112.807 53.0299 112.862 53.0527 112.92 53.0527H114.144C114.611 53.0917 115.075 52.9489 115.438 52.6541L115.458 52.664Z" fill="url(#paint3_radial_266_518)"/>
<path d="M123.245 54.6469H121.381C121.322 54.6469 121.266 54.6702 121.224 54.7117C121.183 54.7533 121.16 54.8096 121.16 54.8683V57.4221C121.16 57.4795 121.137 57.5345 121.096 57.5751C121.055 57.6157 121 57.6386 120.943 57.6386H119.694C119.636 57.6386 119.581 57.6157 119.54 57.5751C119.5 57.5345 119.477 57.4795 119.477 57.4221V47.1333C119.477 47.0759 119.5 47.0208 119.54 46.9802C119.581 46.9396 119.636 46.9168 119.694 46.9168H123.108C123.708 46.8947 124.3 47.0673 124.795 47.4089C125.24 47.7518 125.581 48.2118 125.779 48.7374C126.005 49.3191 126.117 49.9389 126.108 50.5629C126.113 50.9968 126.091 51.4305 126.044 51.8619C125.998 52.2587 125.893 52.6466 125.735 53.0133C125.572 53.3859 125.334 53.721 125.036 53.9974C125.005 54.0253 124.983 54.0613 124.971 54.1014C124.96 54.1414 124.96 54.1838 124.972 54.2237L126.025 57.3581C126.037 57.391 126.041 57.4264 126.036 57.4611C126.031 57.4959 126.018 57.5289 125.998 57.5575C125.977 57.586 125.95 57.6092 125.919 57.6251C125.888 57.6409 125.853 57.6489 125.818 57.6484H124.564C124.518 57.6487 124.474 57.6346 124.436 57.6081C124.399 57.5816 124.372 57.544 124.357 57.5008L123.432 54.8044C123.42 54.7627 123.396 54.7255 123.362 54.6975C123.329 54.6695 123.288 54.6519 123.245 54.6469ZM123.821 52.6492C124.055 52.4018 124.209 52.0898 124.264 51.7537C124.327 51.3583 124.357 50.9583 124.352 50.558C124.375 50.1337 124.296 49.7101 124.121 49.3229C123.987 49.058 123.756 48.8552 123.477 48.7571C123.13 48.6484 122.767 48.5985 122.404 48.6095H121.381C121.323 48.6094 121.267 48.6321 121.226 48.6726C121.185 48.713 121.161 48.7681 121.16 48.826V52.8214C121.161 52.8793 121.185 52.9343 121.226 52.9748C121.267 53.0153 121.323 53.0379 121.381 53.0379H122.709C122.911 53.055 123.115 53.0293 123.307 52.9623C123.498 52.8953 123.673 52.7886 123.821 52.6492Z" fill="url(#paint4_radial_266_518)"/>
<path d="M132.833 57.0776C132.184 57.5707 131.386 57.8275 130.571 57.8059C130.036 57.8093 129.507 57.709 129.011 57.5106C128.521 57.3092 128.101 56.9667 127.806 56.5265C127.477 56.0105 127.314 55.4061 127.338 54.7945V49.8741C127.307 49.437 127.368 48.9984 127.518 48.5864C127.667 48.1745 127.901 47.7985 128.204 47.4827C128.864 46.9118 129.72 46.6205 130.59 46.6708C131.02 46.644 131.451 46.7067 131.856 46.8549C132.261 47.0031 132.63 47.2337 132.942 47.5319C133.23 47.8497 133.453 48.2217 133.597 48.6263C133.74 49.031 133.802 49.4601 133.778 49.8888V54.8093C133.812 55.2353 133.744 55.6633 133.58 56.0578C133.416 56.4523 133.16 56.8019 132.833 57.0776ZM131.982 49.3771C131.919 49.1123 131.762 48.8796 131.54 48.7227C131.243 48.5463 130.9 48.4639 130.556 48.4865C130.212 48.4649 129.87 48.5453 129.572 48.7177C129.349 48.8654 129.191 49.0924 129.129 49.3525C129.047 49.7023 129.011 50.0611 129.021 50.4202V54.5141C128.996 54.9342 129.13 55.3484 129.395 55.6753C129.546 55.824 129.728 55.9384 129.927 56.0106C130.127 56.0827 130.339 56.111 130.551 56.0935C130.759 56.1036 130.967 56.0693 131.162 55.993C131.356 55.9166 131.532 55.8 131.677 55.6507C131.959 55.3291 132.105 54.9114 132.086 54.4845V50.4399C132.097 50.0827 132.062 49.7255 131.982 49.3771Z" fill="url(#paint5_radial_266_518)"/>
<path d="M136.439 48.6095H134.668C134.64 48.6095 134.612 48.6039 134.585 48.593C134.559 48.5822 134.535 48.5662 134.515 48.5461C134.495 48.526 134.479 48.5021 134.468 48.4759C134.457 48.4496 134.452 48.4214 134.452 48.393V47.1334C134.452 47.1049 134.457 47.0768 134.468 47.0505C134.479 47.0243 134.495 47.0004 134.515 46.9803C134.535 46.9602 134.559 46.9442 134.585 46.9334C134.612 46.9225 134.64 46.9169 134.668 46.9169H140.394C140.452 46.9169 140.507 46.9397 140.547 46.9803C140.588 47.0209 140.611 47.076 140.611 47.1334V48.4029C140.611 48.4603 140.588 48.5153 140.547 48.5559C140.507 48.5965 140.452 48.6194 140.394 48.6194H138.564C138.506 48.6193 138.451 48.642 138.409 48.6825C138.368 48.7229 138.344 48.778 138.343 48.8359V57.4319C138.343 57.4894 138.32 57.5444 138.28 57.585C138.239 57.6256 138.184 57.6485 138.126 57.6485H136.877C136.819 57.6485 136.763 57.6258 136.722 57.5854C136.681 57.5449 136.657 57.4898 136.656 57.4319V48.826C136.656 48.7686 136.633 48.7135 136.592 48.6729C136.552 48.6323 136.497 48.6095 136.439 48.6095Z" fill="url(#paint6_radial_266_518)"/>
<path d="M146.765 57.0776C146.117 57.5699 145.321 57.8268 144.507 57.8059C143.971 57.8093 143.44 57.7091 142.943 57.5106C142.453 57.308 142.034 56.9657 141.737 56.5266C141.4 56.0133 141.228 55.4087 141.245 54.7945V49.8741C141.214 49.437 141.275 48.9984 141.425 48.5864C141.574 48.1745 141.808 47.7985 142.111 47.4827C142.771 46.9122 143.627 46.621 144.497 46.6708C144.927 46.644 145.358 46.7067 145.763 46.8549C146.168 47.0031 146.537 47.2337 146.849 47.5319C147.137 47.8497 147.36 48.2217 147.503 48.6263C147.647 49.031 147.709 49.4601 147.685 49.8888V54.8093C147.722 55.2333 147.658 55.66 147.498 56.0544C147.338 56.4487 147.087 56.7995 146.765 57.0776ZM145.914 49.3771C145.853 49.1115 145.695 48.8782 145.471 48.7227C145.175 48.546 144.832 48.4636 144.487 48.4865C144.144 48.4652 143.802 48.5456 143.503 48.7177C143.281 48.8654 143.122 49.0924 143.061 49.3525C142.979 49.7023 142.943 50.0611 142.952 50.4202V54.5141C142.928 54.9342 143.061 55.3484 143.326 55.6753C143.478 55.8247 143.661 55.9394 143.861 56.0116C144.061 56.0838 144.275 56.1118 144.487 56.0935C144.695 56.1048 144.903 56.071 145.096 55.9946C145.29 55.9182 145.465 55.8009 145.609 55.6507C145.89 55.3291 146.036 54.9114 146.017 54.4846V50.4399C146.028 50.0827 145.994 49.7255 145.914 49.3771Z" fill="url(#paint7_radial_266_518)"/>
<path d="M152.722 57.7911C151.939 57.8264 151.17 57.5764 150.558 57.0875C150.262 56.7962 150.035 56.4431 149.892 56.0534C149.749 55.6638 149.694 55.2473 149.731 54.8339V49.9134C149.696 49.3065 149.809 48.7001 150.061 48.147C150.297 47.7317 150.636 47.3842 151.045 47.1383C151.554 46.8678 152.126 46.7355 152.703 46.7545C153.382 46.7499 154.053 46.8944 154.67 47.1776C154.719 47.2002 154.757 47.2398 154.778 47.2888C154.799 47.3379 154.801 47.3929 154.783 47.4433L154.434 48.58C154.416 48.6351 154.377 48.681 154.326 48.7076C154.274 48.7343 154.214 48.7397 154.159 48.7227C153.725 48.5918 153.274 48.5271 152.821 48.5308H152.796C152.41 48.5461 152.045 48.7125 151.78 48.994C151.515 49.2756 151.371 49.6499 151.379 50.0364V54.8044C151.379 55.6605 151.871 56.0886 152.821 56.0886C153.13 56.0897 153.438 56.0567 153.741 55.9902C153.996 55.9345 154.324 55.8557 154.724 55.754C154.754 55.7452 154.785 55.7428 154.815 55.7469C154.846 55.7511 154.875 55.7616 154.901 55.7779C154.927 55.7942 154.949 55.8158 154.966 55.8414C154.984 55.867 154.995 55.8959 155 55.9263L155.192 57.1023C155.199 57.154 155.189 57.2068 155.162 57.2516C155.135 57.2965 155.093 57.3306 155.044 57.3483C154.3 57.6231 153.515 57.7728 152.722 57.7911Z" fill="url(#paint8_radial_266_518)"/>
<path d="M161.769 57.0776C161.121 57.5706 160.325 57.8276 159.511 57.8059C158.976 57.8088 158.444 57.7086 157.947 57.5106C157.457 57.308 157.038 56.9657 156.742 56.5265C156.404 56.0133 156.232 55.4087 156.25 54.7945V49.8741C156.219 49.437 156.28 48.9984 156.429 48.5864C156.578 48.1745 156.812 47.7985 157.115 47.4827C157.775 46.9122 158.631 46.621 159.501 46.6708C159.931 46.644 160.363 46.7067 160.767 46.8549C161.172 47.0031 161.542 47.2337 161.853 47.5319C162.141 47.8497 162.364 48.2217 162.508 48.6263C162.651 49.031 162.713 49.4601 162.689 49.8888V54.8093C162.726 55.2333 162.662 55.66 162.502 56.0544C162.342 56.4487 162.091 56.7994 161.769 57.0776ZM160.918 49.3771C160.857 49.1115 160.699 48.8782 160.475 48.7227C160.179 48.546 159.836 48.4636 159.491 48.4865C159.148 48.4652 158.806 48.5456 158.508 48.7177C158.286 48.8668 158.128 49.0932 158.065 49.3525C157.983 49.7023 157.947 50.0611 157.957 50.4202V54.5141C157.932 54.9342 158.065 55.3484 158.331 55.6753C158.482 55.8247 158.665 55.9394 158.865 56.0116C159.066 56.0838 159.279 56.1118 159.491 56.0935C159.7 56.1036 159.908 56.0693 160.102 55.993C160.296 55.9166 160.472 55.8 160.618 55.6507C160.897 55.3284 161.042 54.9107 161.021 54.4845V50.4399C161.033 50.0827 160.998 49.7255 160.918 49.3771Z" fill="url(#paint9_radial_266_518)"/>
<path d="M165.139 46.907H166.388C166.446 46.907 166.501 46.9298 166.541 46.9704C166.582 47.011 166.605 47.0661 166.605 47.1235V55.8721C166.606 55.93 166.63 55.985 166.671 56.0255C166.713 56.066 166.768 56.0886 166.826 56.0886H170.235C170.293 56.0899 170.348 56.1138 170.389 56.1552C170.429 56.1966 170.452 56.2521 170.452 56.31V57.4221C170.452 57.4505 170.446 57.4786 170.435 57.5049C170.424 57.5312 170.408 57.555 170.388 57.5751C170.368 57.5953 170.344 57.6112 170.318 57.6221C170.292 57.633 170.264 57.6386 170.235 57.6386H165.139C165.081 57.6386 165.026 57.6157 164.986 57.5751C164.945 57.5345 164.922 57.4795 164.922 57.4221V47.1333C164.921 47.1041 164.926 47.0749 164.936 47.0474C164.946 47.02 164.962 46.995 164.982 46.9738C165.002 46.9527 165.027 46.9358 165.054 46.9243C165.081 46.9129 165.11 46.907 165.139 46.907Z" fill="url(#paint10_radial_266_518)"/>
</g>
<defs>
<radialGradient id="paint0_radial_266_518" cx="0" cy="0" r="1" gradientUnits="userSpaceOnUse" gradientTransform="translate(51.2261 34.5296) rotate(8.82194) scale(41.6773 41.6862)">
<stop stop-color="#00E2C4"/>
<stop offset="1" stop-color="#00BCE2"/>
</radialGradient>
<radialGradient id="paint1_radial_266_518" cx="0" cy="0" r="1" gradientUnits="userSpaceOnUse" gradientTransform="translate(39.5764 28.5683) scale(25.8661 25.8719)">
<stop stop-color="#00E2C4"/>
<stop offset="1" stop-color="#00BCE2"/>
</radialGradient>
<radialGradient id="paint2_radial_266_518" cx="0" cy="0" r="1" gradientUnits="userSpaceOnUse" gradientTransform="translate(58.2701 40.4021) scale(28.0257 28.032)">
<stop stop-color="#00E2C4"/>
<stop offset="1" stop-color="#00BCE2"/>
</radialGradient>
<radialGradient id="paint3_radial_266_518" cx="0" cy="0" r="1" gradientUnits="userSpaceOnUse" gradientTransform="translate(140.744 52.2359) scale(21.3748 21.3795)">
<stop stop-color="#00E2C4"/>
<stop offset="1" stop-color="#00BCE2"/>
</radialGradient>
<radialGradient id="paint4_radial_266_518" cx="0" cy="0" r="1" gradientUnits="userSpaceOnUse" gradientTransform="translate(140.744 52.2359) scale(21.3748 21.3795)">
<stop stop-color="#00E2C4"/>
<stop offset="1" stop-color="#00BCE2"/>
</radialGradient>
<radialGradient id="paint5_radial_266_518" cx="0" cy="0" r="1" gradientUnits="userSpaceOnUse" gradientTransform="translate(140.744 52.2359) scale(21.3747 21.3795)">
<stop stop-color="#00E2C4"/>
<stop offset="1" stop-color="#00BCE2"/>
</radialGradient>
<radialGradient id="paint6_radial_266_518" cx="0" cy="0" r="1" gradientUnits="userSpaceOnUse" gradientTransform="translate(140.744 52.2359) scale(21.3748 21.3795)">
<stop stop-color="#00E2C4"/>
<stop offset="1" stop-color="#00BCE2"/>
</radialGradient>
<radialGradient id="paint7_radial_266_518" cx="0" cy="0" r="1" gradientUnits="userSpaceOnUse" gradientTransform="translate(140.744 52.2359) scale(21.3748 21.3795)">
<stop stop-color="#00E2C4"/>
<stop offset="1" stop-color="#00BCE2"/>
</radialGradient>
<radialGradient id="paint8_radial_266_518" cx="0" cy="0" r="1" gradientUnits="userSpaceOnUse" gradientTransform="translate(140.744 52.2359) scale(21.3747 21.3795)">
<stop stop-color="#00E2C4"/>
<stop offset="1" stop-color="#00BCE2"/>
</radialGradient>
<radialGradient id="paint9_radial_266_518" cx="0" cy="0" r="1" gradientUnits="userSpaceOnUse" gradientTransform="translate(140.744 52.2359) scale(21.3748 21.3795)">
<stop stop-color="#00E2C4"/>
<stop offset="1" stop-color="#00BCE2"/>
</radialGradient>
<radialGradient id="paint10_radial_266_518" cx="0" cy="0" r="1" gradientUnits="userSpaceOnUse" gradientTransform="translate(140.743 52.2359) scale(21.3749 21.3795)">
<stop stop-color="#00E2C4"/>
<stop offset="1" stop-color="#00BCE2"/>
</radialGradient>
<clipPath id="clip0_266_518">
<rect width="256" height="69" fill="white"/>
</clipPath>
</defs>
</svg>
