<svg width="77" height="77" viewBox="0 0 77 77" fill="none" xmlns="http://www.w3.org/2000/svg">
<g clip-path="url(#clip0_265_509)">
<path d="M76.4834 57.586C76.3505 57.0644 76.2509 56.5429 76.1512 56.0214C76.0347 55.2967 75.8626 54.5824 75.6364 53.8848C75.0413 52.0134 74.131 50.2603 72.9458 48.7033C72.6342 48.3157 72.4798 47.8225 72.514 47.3238V45.2377C72.514 35.9681 72.514 26.3956 72.514 16.9746C72.6033 13.9919 71.8842 11.0413 70.4349 8.44327C68.9856 5.84523 66.8614 3.69897 64.2929 2.23747C61.8162 0.736099 58.9742 -0.033127 56.0883 0.0168122H47.6512C37.5699 0.0168122 27.1399 0.0168122 16.8925 0.0168122C13.1266 -0.0169626 9.46636 1.27719 6.53921 3.67744C3.61207 6.07769 1.6003 9.43453 0.84878 13.1726C0.604676 14.3791 0.487776 15.6085 0.500018 16.8401V56.1055C0.446128 59.6242 1.4984 63.0691 3.50471 65.9421C5.51103 68.8151 8.36741 70.9673 11.6609 72.0876C13.4743 72.7035 15.3787 72.9994 17.2911 72.9624H47.1862C47.674 72.9447 48.1517 73.106 48.5315 73.4166C50.9536 75.2686 53.8208 76.4303 56.8357 76.7813H56.9686C57.1014 76.7813 57.1513 76.7813 57.1845 76.7813H60.5061L61.486 76.5962C62.7273 76.5158 63.9571 76.3073 65.1565 75.9738C68.1458 74.8677 70.7774 72.9502 72.7634 70.4312C74.7493 67.9122 76.0133 64.8885 76.417 61.6908L76.5166 61.1861V60.8665V57.6701L76.4834 57.586ZM69.458 36.7588C69.458 39.4841 69.458 42.1927 69.458 44.9012V45.1367L69.1923 44.9517C68.442 44.4401 67.6659 43.9685 66.8671 43.5385C64.5739 42.3761 62.0559 41.7402 59.4923 41.6762C56.9287 41.6123 54.3828 42.1218 52.0359 43.1684C49.6924 44.2223 47.6069 45.7861 45.9277 47.7487C44.2484 49.7114 43.0167 52.0247 42.3199 54.5241C42.2037 54.9615 42.0708 55.0793 41.639 55.0793C40.111 55.0793 38.5498 55.0793 37.0551 55.0793H36.9056C35.8759 55.0793 35.2448 55.5335 35.1119 56.3747C35.0732 56.5918 35.0798 56.8148 35.1313 57.0292C35.1828 57.2436 35.278 57.4447 35.4108 57.6196C35.5714 57.7951 35.767 57.9339 35.9846 58.0267C36.2023 58.1195 36.437 58.1643 36.6731 58.158C38.3339 58.158 39.9948 58.158 41.3899 58.158C41.4729 58.158 41.6722 58.158 41.7054 58.158C41.7387 58.158 41.7054 58.1579 41.7054 58.4103C41.48 62.4893 42.686 66.5177 45.1101 69.7828H36.507C30.0297 69.7828 23.5691 69.7828 17.0918 69.7828C13.9456 69.8348 10.8834 68.7541 8.45028 66.7331C6.01715 64.7121 4.37103 61.882 3.80507 58.7468C3.6522 57.8524 3.57993 56.9458 3.58915 56.0382V16.7896C3.53784 13.6028 4.60476 10.5009 6.59993 8.03627C8.5951 5.57166 11.389 3.90428 14.4843 3.33099C15.3444 3.17152 16.2173 3.09265 17.0918 3.09544H55.972C57.7378 3.0525 59.4941 3.36978 61.1363 4.02838C62.7786 4.68697 64.2733 5.67344 65.5315 6.92909C66.7897 8.18474 67.7857 9.68393 68.4603 11.3374C69.1348 12.9909 69.4741 14.765 69.458 16.554C69.458 23.3506 69.458 30.1641 69.458 36.7588ZM59.0944 44.7498C61.0273 44.7773 62.9356 45.1929 64.7089 45.9726C66.4821 46.7523 68.0851 47.8806 69.4249 49.2921C70.729 50.6494 71.7543 52.2553 72.4414 54.0169C73.1285 55.7784 73.4636 57.6606 73.4275 59.5543C73.3943 61.4727 72.9868 63.3655 72.2286 65.1239C71.4704 66.8822 70.3765 68.4712 69.0096 69.7996C67.6586 71.1352 66.0575 72.1834 64.3005 72.8826C62.5434 73.5818 60.666 73.9178 58.7789 73.8709C55.0062 73.7871 51.4167 72.2066 48.7828 69.4694C46.1489 66.7322 44.681 63.057 44.6949 59.2346C44.6971 57.3246 45.0717 55.4337 45.7974 53.6708C46.523 51.9078 47.5853 50.3074 48.9233 48.9615C50.2613 47.6155 51.8487 46.5506 53.5941 45.8279C55.3396 45.1051 57.2088 44.7387 59.0944 44.7498Z" fill="white"/>
<path d="M36.0752 19.1281C36.4058 19.2151 36.7469 19.2547 37.0883 19.2458H59.8086C60.1501 19.2539 60.491 19.2142 60.8218 19.1281C61.1593 19.0439 61.4537 18.8351 61.6472 18.5426C61.8407 18.2501 61.9195 17.8949 61.868 17.5467C61.859 17.2106 61.732 16.8887 61.5098 16.639C61.2876 16.3892 60.9847 16.2279 60.6557 16.184C60.4238 16.1592 60.19 16.1592 59.9581 16.184H36.9222C36.6904 16.1592 36.4565 16.1592 36.2247 16.184C35.8955 16.2348 35.5943 16.4004 35.3729 16.6523C35.1515 16.9042 35.024 17.2265 35.0123 17.5635C34.9659 17.9114 35.0491 18.2644 35.2456 18.5536C35.4421 18.8428 35.7378 19.0476 36.0752 19.1281Z" fill="white"/>
<path d="M60.5893 34.9923C60.2853 34.9663 59.9798 34.9663 59.6758 34.9923C56.5368 34.9923 53.3979 34.9923 50.2755 34.9923H37.1714C36.5291 34.9206 35.8847 35.1079 35.3777 35.5138C35.2493 35.6536 35.1494 35.8177 35.0838 35.9967C35.0183 36.1757 34.9883 36.3661 34.9957 36.5569C34.9957 37.5831 35.7099 38.0878 37.1382 38.0878H59.7257C60.0293 38.12 60.3354 38.12 60.6391 38.0878C60.9956 38.0379 61.3208 37.855 61.5512 37.575C61.7816 37.2949 61.9005 36.9379 61.8847 36.5737C61.903 36.3836 61.884 36.1916 61.8286 36.009C61.7733 35.8263 61.6828 35.6566 61.5623 35.5096C61.4419 35.3626 61.2939 35.2412 61.1269 35.1524C60.9599 35.0636 60.7771 35.0092 60.5893 34.9923Z" fill="white"/>
<path d="M27.8872 9.63975C27.6382 9.47136 27.3422 9.38859 27.0431 9.40374C26.744 9.41889 26.4577 9.53112 26.2264 9.72385C25.9308 9.97281 25.6584 10.2488 25.4126 10.5482L24.4161 11.7258C22.34 14.182 20.181 16.7728 18.0883 19.229C17.7893 19.5823 17.7063 19.5991 17.3907 19.3299C16.6267 18.7075 15.813 18.1018 15.0324 17.5298L14.0525 16.7896C13.604 16.4363 13.1224 16.0831 12.6241 15.7634C12.361 15.6093 12.0546 15.5488 11.7537 15.5915C11.4527 15.6342 11.1745 15.7776 10.9633 15.9989C10.7395 16.2077 10.5857 16.482 10.5231 16.7835C10.4606 17.0851 10.4926 17.399 10.6145 17.6813C10.7858 18.0334 11.0503 18.3304 11.3785 18.5392L13.2054 19.9187L16.8759 22.6946C17.2136 22.9942 17.6401 23.1718 18.0883 23.1993C18.3588 23.1771 18.6211 23.0948 18.8565 22.9581C19.0919 22.8214 19.2946 22.6338 19.4502 22.4086L25.6783 15.0232L28.1198 12.1464C28.4406 11.8091 28.6345 11.3686 28.6678 10.9015C28.6545 10.6413 28.5758 10.3888 28.4392 10.168C28.3026 9.9472 28.1126 9.76539 27.8872 9.63975Z" fill="white"/>
<path d="M26.326 28.4986C26.064 28.6768 25.8337 28.8986 25.645 29.1547L24.3164 30.7193C22.2735 33.125 20.1643 35.598 18.1214 38.0542C17.8391 38.3907 17.7561 38.3907 17.4239 38.0542C16.0288 36.9607 14.5839 35.8672 13.1722 34.8242C12.7657 34.4923 12.2468 34.3352 11.7272 34.3868C11.5402 34.42 11.3617 34.4907 11.202 34.5947C11.0423 34.6987 10.9046 34.8339 10.7971 34.9924C10.5666 35.368 10.4915 35.8204 10.5878 36.2518C10.6842 36.6831 10.9443 37.0587 11.312 37.2972L15.6634 40.6618L16.9754 41.6544C17.2652 41.9137 17.6353 42.0624 18.0218 42.075H18.1547C18.436 42.0476 18.7075 41.9562 18.9491 41.8077C19.1907 41.6591 19.396 41.4572 19.5498 41.217L27.854 31.4595L28.0201 31.2745C28.2744 31.022 28.4825 30.7258 28.6346 30.3997C28.7757 30.0959 28.8081 29.7518 28.7263 29.4265C28.6445 29.1012 28.4535 28.8148 28.1861 28.6164C27.9449 28.3679 27.6216 28.2185 27.2783 28.1967C26.935 28.175 26.5958 28.2825 26.326 28.4986Z" fill="white"/>
<path d="M26.3094 48.6529C26.059 48.8452 25.8306 49.0653 25.6285 49.309L24.2333 50.9913C22.2403 53.3297 20.1809 55.7523 18.1879 58.158C17.8557 58.5618 17.7395 58.5618 17.3243 58.158C16.0786 57.1654 14.7832 56.1897 13.5209 55.2644L13.1389 54.9616C12.7324 54.6297 12.2136 54.4727 11.694 54.5242C11.507 54.5575 11.3284 54.6282 11.1687 54.7321C11.009 54.8361 10.8714 54.9713 10.7639 55.1298C10.6353 55.3089 10.5456 55.5136 10.5009 55.7304C10.4562 55.9472 10.4574 56.1712 10.5045 56.3874C10.5516 56.6037 10.6435 56.8074 10.7741 56.985C10.9047 57.1627 11.0711 57.3102 11.2622 57.4178L15.6966 60.7824L16.9256 61.7077C17.1989 61.954 17.5417 62.107 17.9055 62.1451C18.2158 62.1362 18.5195 62.0521 18.7911 61.8999C19.0627 61.7477 19.2944 61.5318 19.4667 61.2703L23.0541 57.0309L27.9536 51.2268C28.1461 51.0116 28.3133 50.7745 28.4518 50.5203C28.6163 50.2262 28.6699 49.8818 28.6027 49.5507C28.5355 49.2197 28.3521 48.9246 28.0865 48.7202C27.8428 48.5042 27.5333 48.3797 27.2097 48.3675C26.8862 48.3552 26.5683 48.456 26.3094 48.6529Z" fill="white"/>
<path d="M57.583 65.7116C57.9191 66.0293 58.3533 66.2195 58.812 66.25H58.9781C59.2287 66.1965 59.4651 66.0892 59.6714 65.9354C59.8776 65.7816 60.049 65.5848 60.1739 65.3584C62.1005 62.5825 64.0105 59.7899 65.937 56.9467L68.0961 53.8008C68.3725 53.4459 68.5245 53.0079 68.5279 52.5559C68.5032 52.2859 68.4088 52.0272 68.2543 51.8058C68.0999 51.5843 67.8907 51.4079 67.6477 51.2941C67.3841 51.1462 67.0806 51.0877 66.7818 51.127C66.483 51.1664 66.2044 51.3016 65.9869 51.5128C65.7489 51.7525 65.5373 52.0177 65.3557 52.3035C63.1468 55.4999 60.8549 58.8309 58.7124 62.1115C58.5795 62.2965 58.5131 62.347 58.4799 62.347C58.4467 62.347 58.3802 62.347 58.1975 62.1788C56.7028 60.9002 55.1914 59.6553 53.6468 58.3767C53.2571 58.0321 52.752 57.8515 52.2351 57.872C51.8483 57.9287 51.4976 58.1334 51.2552 58.444C51.0116 58.8108 50.9203 59.26 51.0011 59.6945C51.0819 60.129 51.3284 60.5137 51.6871 60.7656C53.6247 62.4255 55.59 64.0742 57.583 65.7116Z" fill="white"/>
</g>
<defs>
<clipPath id="clip0_265_509">
<rect width="76" height="77" fill="white" transform="translate(0.5)"/>
</clipPath>
</defs>
</svg>
