<svg width="26" height="27" viewBox="0 0 26 27" fill="none" xmlns="http://www.w3.org/2000/svg">
<path d="M13.8667 12.6767V8.3H20.8C21.0299 8.3 21.2503 8.20868 21.4128 8.04615C21.5754 7.88362 21.6667 7.66319 21.6667 7.43333V1.36667C21.6667 1.13681 21.5754 0.916385 21.4128 0.753853C21.2503 0.591322 21.0299 0.5 20.8 0.5H13C12.7701 0.5 12.5497 0.591322 12.3872 0.753853C12.2246 0.916385 12.1333 1.13681 12.1333 1.36667V12.6767C8.84536 12.8963 5.76351 14.3565 3.51106 16.7618C1.25861 19.1671 0.00365343 22.338 0 25.6333C0 25.8632 0.0913092 26.0836 0.253841 26.2461C0.416372 26.4087 0.636812 26.5 0.866667 26.5H25.1333C25.3632 26.5 25.5836 26.4087 25.7462 26.2461C25.9087 26.0836 26 25.8632 26 25.6333C25.9963 22.338 24.7414 19.1671 22.4889 16.7618C20.2365 14.3565 17.1546 12.8963 13.8667 12.6767ZM22.984 20.4333H22.022L20.5487 18.9513C20.4066 18.8107 20.2202 18.7235 20.0212 18.7046C19.8222 18.6856 19.6228 18.7361 19.4567 18.8473L17.6713 20.0347L16.5707 17.8333L17.7667 15.4413C20.0038 16.4916 21.836 18.2447 22.984 20.4333ZM13.8667 2.23333H19.9333V6.56667H13.8667V2.23333ZM7.28 15.944L9.34267 18.0067L7.89533 20.91C7.79254 21.1147 7.77494 21.3517 7.8464 21.5694C7.91785 21.787 8.07255 21.9674 8.27667 22.0713L9.75 22.8167L10.7293 24.7667H1.73333C1.87914 22.9581 2.45957 21.2115 3.42527 19.6755C4.39097 18.1394 5.71337 16.8593 7.28 15.944ZM12.6707 24.7667L11.1713 21.7767C11.0912 21.6099 10.9567 21.4755 10.79 21.3953L9.828 20.91L11.1713 18.2233C11.2546 18.0607 11.2844 17.8759 11.2564 17.6954C11.2284 17.5148 11.144 17.3477 11.0153 17.218L8.92667 15.138C10.2244 14.6288 11.606 14.3672 13 14.3667C14.062 14.365 15.1187 14.5168 16.1373 14.8173L14.8287 17.4173C14.7677 17.5383 14.736 17.6719 14.736 17.8073C14.736 17.9428 14.7677 18.0764 14.8287 18.1973L16.562 21.664C16.6162 21.7733 16.6928 21.87 16.7869 21.9476C16.881 22.0253 16.9904 22.0822 17.108 22.1147C17.1829 22.1232 17.2585 22.1232 17.3333 22.1147C17.5032 22.1133 17.669 22.0621 17.81 21.9673L19.8207 20.6327L21.0513 21.8633C21.1279 21.9531 21.2219 22.0263 21.3277 22.0785C21.4335 22.1306 21.5489 22.1606 21.6667 22.1667H23.712C23.9871 23.0098 24.1616 23.8826 24.232 24.7667H12.6707Z" fill="url(#paint0_linear_228_10)"/>
<defs>
<linearGradient id="paint0_linear_228_10" x1="13" y1="0.5" x2="13" y2="26.5" gradientUnits="userSpaceOnUse">
<stop stop-color="#01D6FE"/>
<stop offset="0.3125" stop-color="#008BD9"/>
<stop offset="1" stop-color="#10FFB7"/>
</linearGradient>
</defs>
</svg>
