<svg width="77" height="76" viewBox="0 0 77 76" fill="none" xmlns="http://www.w3.org/2000/svg">
<path d="M76.585 39.1201C76.2496 38.9175 75.8585 38.8235 75.4663 38.8511H69.0144C66.2277 38.8511 63.3476 38.8511 60.5142 38.8692C60.2009 38.8692 60.1074 38.823 60.083 38.7949C60.0585 38.7668 60.0158 38.6805 60.0362 38.3934C60.0862 37.5792 60.0862 36.7628 60.0362 35.9486C60.024 35.7117 60.0667 35.6555 60.0748 35.6475C60.083 35.6394 60.1541 35.5913 60.4145 35.5933C62.4302 35.6113 64.4826 35.6073 66.4637 35.6053H68.2475C68.4975 35.6104 68.7475 35.5997 68.996 35.5732C69.2836 35.5366 69.5471 35.3957 69.7352 35.178C69.9233 34.9602 70.0226 34.6812 70.0137 34.3952C70.0048 34.1092 69.8884 33.8367 69.6871 33.6307C69.4859 33.4247 69.2141 33.3 68.9249 33.2809C68.7865 33.2708 68.6523 33.2809 68.518 33.2809H66.2806C64.3625 33.2809 62.3794 33.2809 60.4267 33.2989C60.146 33.2989 60.0789 33.2568 60.0646 33.2427C60.0504 33.2287 60.0118 33.1665 60.028 32.9015C60.0779 32.0879 60.0779 31.2722 60.028 30.4586C60.0097 30.1696 60.0524 30.0792 60.0789 30.0572C60.1053 30.0351 60.2009 29.9769 60.5081 29.9809C63.3862 30.007 66.3132 30.003 69.1425 29.9989H71.4186C72.639 29.9989 73.0132 29.6296 73.0153 28.4192C73.0153 25.8298 73.0153 23.2404 73.0153 20.651V18.6879C73.0153 18.6457 73.0153 18.6036 73.0153 18.5594C73.0221 18.412 73.016 18.2642 72.997 18.1178C72.9672 17.8405 72.8378 17.5828 72.6323 17.3914C72.4268 17.2 72.1586 17.0874 71.8764 17.0741C71.5941 17.0608 71.3163 17.1475 71.0932 17.3187C70.8701 17.4899 70.7164 17.7341 70.6599 18.0074C70.6134 18.2372 70.5956 18.4718 70.607 18.7059V19.3382C70.607 21.9477 70.607 24.6656 70.607 27.3293C70.6137 27.4359 70.6034 27.5429 70.5765 27.6464C70.5082 27.6736 70.4343 27.6846 70.3609 27.6785C67.4278 27.6605 64.2283 27.6605 60.2904 27.6785C60.2104 27.684 60.13 27.6731 60.0545 27.6464C60.0545 27.6464 60.024 27.6083 60.028 27.4276C60.0504 26.3617 60.0524 25.2497 60.028 24.0293C60.0183 22.2892 59.3791 20.6098 58.2256 19.2937C57.0721 17.9777 55.4802 17.1114 53.7368 16.8512C52.5164 16.6505 51.2675 16.6906 50.0756 16.7267C49.6138 16.7388 49.1379 16.7528 48.6721 16.7528C48.371 16.7528 48.2653 16.7107 48.2287 16.6746C48.1656 16.5963 48.1656 16.3112 48.1656 16.2089C48.2022 12.7222 48.2022 9.64101 48.1656 6.79266C48.1656 6.48354 48.2124 6.3912 48.2429 6.35708C48.3222 6.2808 48.6172 6.28683 48.7148 6.28883C50.1386 6.31693 51.5868 6.31091 52.9862 6.3069H54.5952C54.8779 6.3069 55.1626 6.3069 55.4474 6.3069C56.1695 6.3069 56.918 6.3069 57.6543 6.29285C57.8331 6.29684 58.0109 6.26512 58.1769 6.19958C58.3429 6.13404 58.4938 6.03603 58.6205 5.91146C58.7255 5.79293 58.8051 5.65462 58.8544 5.50488C58.9036 5.35515 58.9217 5.1971 58.9073 5.0403C58.8707 4.3518 58.3784 3.92625 57.6238 3.92625H47.6205C46.1255 3.92625 45.8224 4.22534 45.8224 5.7007V7.75215C45.8224 10.5624 45.8224 13.4609 45.8346 16.3152C45.8346 16.5983 45.798 16.6766 45.7756 16.6986C45.7533 16.7207 45.6963 16.7548 45.4441 16.7428C44.3661 16.6946 43.2534 16.6946 42.1388 16.7428C41.8723 16.7548 41.8113 16.7107 41.8032 16.7027C41.795 16.6946 41.7442 16.6163 41.7462 16.3333C41.7645 13.0815 41.7625 9.7775 41.7605 6.57989V2.95472C41.7605 2.36859 41.7605 1.7838 41.7605 1.20035C41.7605 0.487763 41.3537 0.0521812 40.6662 -0.00402291C39.9787 -0.060227 39.5149 0.337216 39.4193 1.05583C39.3927 1.27626 39.3832 1.49838 39.3908 1.72024V4.77333C39.3908 8.54904 39.3908 12.4532 39.4051 16.2932C39.4051 16.5842 39.3603 16.6705 39.3339 16.6946C39.3074 16.7187 39.2342 16.7569 38.9637 16.7408C38.1148 16.6945 37.2639 16.6945 36.4151 16.7408C36.1933 16.7408 36.1486 16.7107 36.1486 16.7107C36.1486 16.7107 36.1039 16.6605 36.1059 16.4056C36.1242 14.9081 36.1201 13.3946 36.1181 11.9113C36.1181 11.3773 36.1181 10.8414 36.1181 10.3054V9.67112C36.1181 9.15324 36.1181 8.63535 36.1181 8.11747C36.1079 7.36675 35.6726 6.9131 34.9506 6.887C34.2285 6.86091 33.7993 7.28846 33.7302 8.05726C33.7171 8.2128 33.713 8.36895 33.7179 8.52495C33.7179 8.58116 33.7179 8.63535 33.7179 8.68955C33.7179 9.33991 33.7179 9.99161 33.7179 10.6447C33.7179 12.5215 33.7179 14.4585 33.7322 16.3694C33.7322 16.6424 33.6895 16.6986 33.6813 16.7067C33.6732 16.7147 33.6223 16.7548 33.3803 16.7408C32.5804 16.6905 31.778 16.6905 30.9781 16.7408C30.671 16.7609 30.5713 16.7247 30.5245 16.6886C30.4777 16.6525 30.4391 16.5601 30.4472 16.241C30.4879 14.7777 30.4798 13.2903 30.4737 11.853C30.4737 11.2816 30.4737 10.7096 30.4737 10.1368V8.7317C30.4737 7.61699 30.4737 6.50294 30.4737 5.38957C30.4737 4.09286 29.6845 3.94432 29.3448 3.94231C26.1941 3.9122 22.8359 3.91019 18.4323 3.94231C17.8383 3.94231 17.4152 4.3799 17.3725 5.02023C17.3381 5.29244 17.4087 5.56748 17.5704 5.79064C17.7321 6.0138 17.973 6.16872 18.2451 6.2246C18.5054 6.28163 18.7719 6.30591 19.0384 6.29686H19.077C21.9518 6.29686 24.8252 6.29686 27.6972 6.29686H27.8071C27.8868 6.28751 27.9674 6.28751 28.0471 6.29686C28.0745 6.36009 28.0843 6.42937 28.0756 6.49759C28.0532 9.55269 28.0532 12.8286 28.0756 16.512C28.0808 16.5798 28.0725 16.648 28.0511 16.7127C27.9691 16.7385 27.8823 16.746 27.7969 16.7348C26.8897 16.7127 25.9948 16.7127 25.1303 16.7127H24.4794C22.5792 16.7016 20.7475 17.4122 19.3635 18.6972C17.9796 19.9823 17.1495 21.7433 17.0451 23.6158C16.98 24.8904 16.9922 26.1851 17.0023 27.4296V28.1402C17.0023 28.365 16.9698 28.4072 16.9657 28.4112C16.9617 28.4152 16.9189 28.4473 16.7155 28.4493C13.3004 28.4292 9.91173 28.4292 6.64305 28.4493C6.43965 28.4493 6.39084 28.4172 6.39084 28.4152C6.39084 28.4132 6.35626 28.373 6.35829 28.1522C6.37253 26.2513 6.3705 24.3183 6.36846 22.4495V20.0307C6.36846 19.7056 6.36846 19.3784 6.36846 19.0532C6.36846 18.3526 5.94538 17.893 5.25788 17.8488C4.57038 17.8047 4.10663 18.2282 4.0273 18.9207C4.00344 19.1313 3.9946 19.3432 4.00086 19.555V19.6333C4.00086 22.7446 4.00086 25.8559 4.00086 28.9672C4.00086 30.4406 4.3202 30.7577 5.78877 30.7577H8.11976C10.882 30.7577 13.7377 30.7577 16.5467 30.7437C16.8335 30.7437 16.9291 30.7818 16.9535 30.8159C16.9779 30.85 17.0227 30.9163 17.0084 31.1853C16.9596 32.2451 16.9596 33.2929 17.0084 34.2986C17.0227 34.5956 16.9779 34.686 16.9515 34.7141C16.925 34.7422 16.8335 34.7903 16.5284 34.7863C14.712 34.7582 12.8672 34.7643 11.0813 34.7683H5.93522C4.38122 34.7683 2.82723 34.7683 1.2712 34.7683C0.512512 34.7683 0.0406163 35.1898 0.0101059 35.8964C-0.0183704 36.5447 0.416911 37.0044 1.12882 37.1007C1.36113 37.1258 1.59491 37.1352 1.82852 37.1288H4.71073C8.59978 37.1288 12.619 37.1288 16.5732 37.1188C16.864 37.1188 16.9454 37.159 16.98 37.183C17.0145 37.2071 17.039 37.2633 17.0247 37.5082C16.9789 38.346 16.9789 39.1856 17.0247 40.0234C17.0369 40.2482 16.9962 40.3044 16.9881 40.3124C16.98 40.3204 16.8986 40.3686 16.6321 40.3646C14.7466 40.3485 12.8326 40.3505 10.9796 40.3526H8.76454C8.58148 40.3526 8.39435 40.3526 8.20519 40.3526C7.48514 40.3827 7.04376 40.7801 6.98477 41.4385C6.93189 42.127 7.34073 42.5907 8.10349 42.7091C8.27078 42.7295 8.4395 42.7363 8.60792 42.7292C8.65873 42.7262 8.70967 42.7262 8.76047 42.7292H10.7396C12.6719 42.7292 14.6713 42.7292 16.6382 42.7151C16.8945 42.7151 16.9617 42.7573 16.9739 42.7713C16.9861 42.7854 17.0268 42.8436 17.0125 43.0785C16.9861 43.5923 16.9922 44.1122 16.9983 44.616C16.9983 44.8348 16.9983 45.0556 16.9983 45.2764C17.0076 45.4829 16.9981 45.6899 16.9698 45.8947C16.7533 45.9346 16.5326 45.9475 16.3128 45.9328H5.55282C4.8938 45.9328 4.0151 46.0673 4.00696 47.2155C3.98459 50.5777 3.99069 53.9098 4.00696 57.6072C4.00696 58.2817 4.35478 58.7333 4.95888 58.8417C5.2087 58.8993 5.47086 58.8729 5.70375 58.7668C5.93664 58.6606 6.12692 58.4807 6.24439 58.2556C6.35973 58.0271 6.4043 57.7702 6.37253 57.5169C6.37253 57.4687 6.37253 57.4205 6.37253 57.3724V56.2182C6.37253 53.7352 6.37253 51.1658 6.37253 48.6386C6.37253 48.3918 6.40508 48.3456 6.41118 48.3376C6.41728 48.3295 6.45389 48.2954 6.68577 48.2974C9.94021 48.3215 13.3126 48.3215 16.683 48.2974H16.6952C16.9251 48.2974 16.9718 48.3376 16.9779 48.3436C16.984 48.3496 17.0227 48.3998 17.0186 48.6306C17.0044 50.0197 16.9962 51.2742 17.0634 52.5629C17.2403 55.9352 20.2547 58.9501 23.6475 59.1448C25.1649 59.2331 26.6985 59.2151 28.1996 59.199H28.4641C28.7102 59.199 28.7692 59.2351 28.7814 59.2492C28.7936 59.2632 28.8363 59.3214 28.8363 59.5764C28.8119 63.1373 28.8119 66.3389 28.8363 69.3679C28.8363 69.6108 28.7936 69.661 28.7895 69.665C28.7854 69.669 28.7122 69.7112 28.4457 69.7092C26.9548 69.6891 25.4395 69.6931 23.9709 69.6951H19.3496C18.6275 69.6951 18.1821 70.0825 18.1292 70.759C18.0763 71.4354 18.4526 71.8831 19.1726 72.0055C19.3908 72.0371 19.6113 72.0499 19.8317 72.0437C23.0359 72.0437 26.2395 72.0437 29.4424 72.0437C30.8398 72.0437 31.2222 71.6663 31.2222 70.2933V67.8665C31.2222 65.1627 31.2222 62.3665 31.208 59.6145C31.208 59.3415 31.2486 59.2693 31.2669 59.2512C31.2852 59.2331 31.3544 59.195 31.6188 59.205C32.8047 59.2532 33.8379 59.2532 34.7736 59.205C35.0563 59.189 35.1397 59.2391 35.1641 59.2592C35.235 59.3995 35.2619 59.5574 35.2414 59.7129C35.2211 63.6171 35.2252 67.5855 35.2272 71.4254V74.3219C35.2272 74.9623 35.3757 75.43 35.6665 75.713C35.7683 75.809 35.8882 75.8843 36.0194 75.9346C36.1506 75.9849 36.2906 76.0091 36.4313 76.0061H36.4557C37.2368 75.99 37.6334 75.4159 37.6334 74.2958V67.2964C37.6334 66.6166 37.6334 65.9361 37.6334 65.255C37.6334 63.4083 37.6334 61.4953 37.6151 59.6165C37.6151 59.3375 37.6599 59.2693 37.6761 59.2552C37.6924 59.2412 37.7555 59.201 38.026 59.2151C38.8253 59.2623 39.6268 59.2623 40.4262 59.2151C40.7028 59.199 40.8045 59.2371 40.833 59.2713C40.8614 59.3054 40.9184 59.3977 40.9143 59.7008C40.8858 61.8506 40.894 64.0366 40.9001 66.1503V67.3827C40.8891 67.7139 40.9289 68.0448 41.018 68.3643C41.0966 68.6117 41.2639 68.8224 41.4885 68.9569C41.7132 69.0914 41.9798 69.1405 42.2385 69.0949C42.482 69.0756 42.712 68.9766 42.8922 68.8137C43.0723 68.6509 43.1923 68.4334 43.2331 68.1957C43.2663 68.0075 43.2765 67.8162 43.2636 67.6256C43.2636 67.5714 43.2636 67.5152 43.2636 67.461V65.5641C43.2636 63.595 43.2636 61.5495 43.2514 59.5543C43.2514 59.3054 43.2921 59.2572 43.2962 59.2532C43.3002 59.2492 43.347 59.211 43.5728 59.2191C44.3966 59.2652 45.2224 59.2652 46.0462 59.2191C46.3533 59.199 46.4692 59.2412 46.5119 59.2813C46.5547 59.3214 46.6116 59.5141 46.6096 59.7871C46.5791 62.6957 46.5852 65.6524 46.5913 68.5108V70.5542C46.5913 71.3291 46.7499 72.0497 47.8869 72.0577C51.4668 72.0818 55.1179 72.0718 58.3398 72.0577C58.5255 72.066 58.7111 72.0378 58.8856 71.9747C59.0602 71.9117 59.2204 71.815 59.3568 71.6904C59.4621 71.5817 59.5439 71.4531 59.5974 71.3123C59.6509 71.1716 59.6749 71.0216 59.668 70.8714C59.668 70.1267 59.1473 69.6971 58.2747 69.7072C56.8855 69.7072 55.4962 69.7072 54.107 69.7072C52.5205 69.7072 50.8851 69.7072 49.2742 69.7192C49.0219 69.7192 48.9772 69.6811 48.9731 69.6771C48.969 69.673 48.9284 69.6249 48.9304 69.394C48.9507 66.1964 48.9507 62.9025 48.9304 59.6045C48.9304 59.3395 48.9711 59.2693 48.9894 59.2532C49.0077 59.2371 49.0626 59.201 49.2904 59.209C49.8254 59.2311 50.3664 59.2291 50.8912 59.2271C51.3672 59.2271 51.8614 59.2271 52.3415 59.2391C56.0027 59.3656 59.3263 56.6859 59.8857 53.139C60.0891 51.9166 60.0524 50.6801 60.026 49.4857C60.0138 48.9699 60.0016 48.4359 60.0077 47.914C60.0077 47.5527 60.0199 47.5467 60.3901 47.5487C63.7401 47.5728 67.0515 47.5728 70.2348 47.5487H70.251C70.4931 47.5487 70.546 47.5888 70.5541 47.5969C70.5622 47.6049 70.6029 47.6651 70.6009 47.92C70.5826 50.0598 70.5846 52.2357 70.5887 54.3434V56.3507C70.5887 56.4069 70.5887 56.4611 70.5887 56.5173C70.5759 56.7078 70.5862 56.8992 70.6192 57.0873C70.7616 57.7819 71.2294 58.1552 71.8905 58.105C72.5129 58.0569 72.9075 57.6574 72.9868 57.005C73.0009 56.865 73.005 56.7241 72.999 56.5835C72.999 56.5373 72.999 56.4912 72.999 56.443V46.8843C72.999 45.5454 72.6268 45.1781 71.2741 45.1781H68.8109C66.126 45.1781 63.3476 45.1781 60.6179 45.1941C60.5081 45.1941 60.1745 45.1941 60.0891 45.1078C60.0565 45.0737 60.0077 44.9753 60.0321 44.6742C60.1003 43.7334 60.1003 42.7889 60.0321 41.848C60.0118 41.5569 60.0321 41.3823 60.1013 41.314C60.1704 41.2458 60.3575 41.2057 60.6586 41.2097C64.6209 41.2438 68.6482 41.2398 72.5434 41.2338H75.4581C76.4751 41.2338 76.9959 40.8323 76.9979 40.0394C77.0118 39.8644 76.9813 39.6887 76.9092 39.5282C76.8371 39.3677 76.7257 39.2275 76.585 39.1201ZM19.3476 28.0258C19.3476 26.7652 19.3476 25.4625 19.3476 24.1818C19.3781 21.8975 20.6412 20.103 22.7261 19.3824C22.8664 19.3322 23.0475 19.27 23.1614 19.2419C23.1614 19.3503 23.1614 19.5249 23.1614 19.6614C23.1614 24.4227 23.1614 29.1833 23.1614 33.9433V56.2362C23.1614 56.4109 23.1614 56.6176 23.1471 56.7381C23.0271 56.708 22.8258 56.6357 22.6549 56.5735C20.5782 55.8247 19.3374 53.9821 19.3354 51.6456C19.3354 46.4587 19.3354 41.2719 19.3354 36.0851V29.8223C19.3516 29.2241 19.3496 28.624 19.3476 28.0258ZM51.4363 56.3647C51.4573 56.5223 51.4296 56.6825 51.357 56.8244C51.3183 56.8625 51.2126 56.9047 50.9156 56.9047C46.8659 56.8926 42.7002 56.8866 38.445 56.8866C34.3892 56.8866 30.252 56.8866 26.0619 56.9027C25.771 56.9027 25.6815 56.8585 25.6551 56.8324C25.6286 56.8063 25.5839 56.6999 25.5839 56.4109C25.6022 51.6155 25.6002 46.7377 25.6002 42.0226V33.9754C25.6002 29.2422 25.6002 24.3404 25.5859 19.5349C25.5859 19.264 25.6185 19.1736 25.6469 19.1455C25.6754 19.1174 25.7425 19.0793 26.0253 19.0833C34.2183 19.1034 42.6066 19.1034 50.9543 19.0833C51.237 19.0833 51.3468 19.1214 51.3794 19.1536C51.4119 19.1857 51.4526 19.286 51.4526 19.555C51.42 31.7674 51.4201 44.1363 51.4363 56.3647ZM53.81 44.0339V19.6694C53.81 19.5048 53.81 19.3382 53.81 19.2318C53.9117 19.2579 54.0663 19.3081 54.2168 19.3603C55.2054 19.6714 56.0682 20.2845 56.6805 21.1111C57.2929 21.9377 57.6233 22.935 57.6238 23.959C57.634 33.5017 57.634 42.9399 57.6238 52.0149C57.6129 53.0601 57.2635 54.0745 56.6267 54.9099C55.99 55.7452 55.0992 56.3576 54.0846 56.6578C53.9973 56.6868 53.9074 56.7077 53.8161 56.72C53.8015 56.6311 53.7953 56.541 53.7978 56.451C53.8121 52.312 53.81 48.1047 53.81 44.0339Z" fill="white"/>
</svg>
