<svg width="74" height="77" viewBox="0 0 74 77" fill="none" xmlns="http://www.w3.org/2000/svg">
<g clip-path="url(#clip0_265_13)">
<path d="M37.0497 5.67901e-05C38.8049 0.00343542 40.5424 0.365859 42.1628 1.06663C43.7832 1.7674 45.2548 2.7928 46.4937 4.08429C47.7325 5.37577 48.7143 6.90803 49.383 8.59361C50.0518 10.2792 50.3943 12.085 50.391 13.9081C50.3878 15.7312 50.0388 17.5357 49.3641 19.2187C48.6894 20.9017 47.7021 22.4301 46.4586 23.7168C45.2152 25.0035 43.7399 26.0233 42.117 26.7178C40.4941 27.4123 38.7554 27.7681 37.0001 27.7647C29.6156 27.7647 23.574 21.4762 23.6105 13.8445C23.616 12.0184 23.9681 10.2114 24.6468 8.52686C25.3254 6.84233 26.3173 5.31333 27.5656 4.02741C28.8139 2.74148 30.2941 1.72386 31.9215 1.0328C33.5489 0.341735 35.2915 -0.00921053 37.0497 5.67901e-05ZM26.4318 13.7686C26.4184 15.2218 26.6818 16.6634 27.2069 18.0104C27.7319 19.3574 28.5082 20.5834 29.4912 21.6176C30.4741 22.6518 31.6442 23.474 32.9343 24.0367C34.2243 24.5995 35.6087 24.8917 37.0079 24.8967C42.7601 24.9481 47.5423 19.9975 47.5684 13.9663C47.5809 12.5249 47.3199 11.095 46.8003 9.75832C46.2808 8.42163 45.5128 7.20432 44.5403 6.17588C43.5678 5.14745 42.4098 4.32804 41.1323 3.76443C39.8549 3.20082 38.4831 2.90406 37.0953 2.89108C35.7074 2.8781 34.3307 3.14915 33.0437 3.68878C31.7568 4.2284 30.5847 5.02602 29.5945 6.03609C28.6043 7.04617 27.8154 8.24892 27.2727 9.57567C26.7301 10.9024 26.4443 12.3272 26.4318 13.7686Z" fill="white"/>
<path d="M42.4681 37.0267C43.339 37.0267 44.5019 37.3814 45.0052 36.9346C45.6023 36.4065 45.1538 35.1634 45.1982 34.2264C45.232 33.487 45.1981 32.7423 45.2112 32.0002C45.2399 31.0957 45.8135 30.4701 46.5749 30.4592C47.3363 30.4484 47.9256 31.0794 47.9439 31.9758C47.9725 33.292 48.0273 34.6136 47.9439 35.9244C47.8682 36.9508 48.2281 37.1756 49.1381 37.1133C50.335 37.0321 51.5396 37.0835 52.7417 37.0944C53.7847 37.0944 54.3557 37.6116 54.3584 38.6624C54.3775 44.2305 54.3775 49.7986 54.3584 55.3667C54.3584 56.4175 53.7925 56.9375 52.7469 56.951C51.5109 56.9673 50.275 57.0079 49.0416 56.951C48.2203 56.905 47.8787 57.0946 47.9465 58.0343C48.0351 59.2422 47.9752 60.4717 47.9673 61.6796C47.9595 62.8874 47.4458 63.5916 46.5619 63.5753C45.6779 63.5591 45.2216 62.8901 45.2164 61.7175C45.2164 60.4013 45.1877 59.0851 45.2164 57.7689C45.2347 57.1677 45.0912 56.9375 44.468 56.9564C43.1356 57.0052 41.8032 56.9808 40.4707 56.9564C39.3677 56.9564 38.8254 56.4473 38.8228 55.3017C38.8019 49.7661 38.8019 44.2305 38.8228 38.6949C38.8228 37.6116 39.3704 37.1188 40.4186 37.0998C41.0991 37.0998 41.7823 37.0998 42.4655 37.0998L42.4681 37.0267ZM51.5735 46.9279C51.5735 44.867 51.5735 42.806 51.5735 40.7478C51.5735 40.2657 51.5735 39.9136 50.9269 39.9218C48.0325 39.9515 45.1382 39.9434 42.2412 39.9218C41.7667 39.9218 41.6337 40.0951 41.6337 40.5663C41.6459 44.8561 41.6459 49.1468 41.6337 53.4385C41.6337 53.9801 41.8266 54.1209 42.3195 54.1182C45.1486 54.0993 47.9778 54.0911 50.8095 54.1182C51.4171 54.1182 51.5918 53.9124 51.5787 53.3058C51.5553 51.1852 51.5735 49.0566 51.5735 46.9279Z" fill="white"/>
<path d="M19.6443 60.4528C19.6443 57.7843 19.6443 55.1177 19.6443 52.4528C19.6443 50.9903 20.1136 50.4947 21.493 50.4893C22.7603 50.4893 24.0301 50.4541 25.2948 50.4893C25.9154 50.511 26.077 50.2781 26.0536 49.6769C26.0171 48.293 26.0275 46.9091 26.0536 45.5252C26.0666 44.496 26.5751 43.9192 27.4121 43.9192C28.2491 43.9192 28.781 44.5096 28.7941 45.517C28.8123 46.8332 28.8567 48.1548 28.7784 49.4656C28.7263 50.3485 29.0392 50.5489 29.8214 50.4974C31.0522 50.4297 32.2908 50.4677 33.5241 50.4839C34.6193 50.4974 35.1799 51.0093 35.1851 52.1413C35.2094 57.6769 35.2094 63.2125 35.1851 68.7481C35.1851 69.8449 34.648 70.3378 33.5971 70.3541C32.2647 70.3757 30.9296 70.3974 29.5998 70.3541C28.9427 70.3297 28.7706 70.568 28.7915 71.218C28.8358 72.5721 28.8149 73.9262 28.7915 75.2803C28.7915 76.323 28.2204 77.0055 27.4069 77.0082C26.5933 77.0109 26.0562 76.3338 26.0457 75.2722C26.0327 73.8883 26.0197 72.5017 26.0457 71.1205C26.0588 70.5437 25.8658 70.3541 25.3183 70.3676C24.0823 70.4001 22.8489 70.3812 21.613 70.3676C20.0485 70.3676 19.6391 69.937 19.6365 68.35C19.64 65.7176 19.6426 63.0852 19.6443 60.4528ZM22.4291 60.4122C22.4291 62.4705 22.463 64.526 22.4109 66.5815C22.3926 67.3588 22.6299 67.5402 23.347 67.5294C26.0414 67.4861 28.7358 67.4861 31.4303 67.5294C32.1187 67.5294 32.3846 67.4048 32.3768 66.6059C32.3351 62.4921 32.3429 58.3783 32.3768 54.2646C32.3768 53.5686 32.1943 53.3384 31.5059 53.3492C28.781 53.3844 26.051 53.3925 23.3261 53.3492C22.5439 53.3357 22.4109 53.639 22.4239 54.3512C22.4526 56.3661 22.4291 58.3892 22.4291 60.4122Z" fill="white"/>
<path d="M15.9651 47.0146C15.9651 49.6822 15.9651 52.3471 15.9651 55.0147C15.9651 56.5123 15.5375 56.9483 14.1242 56.9538C12.9221 56.9538 11.7201 56.9917 10.518 56.9402C9.8583 56.9131 9.60016 57.081 9.63145 57.8204C9.69142 59.1339 9.66013 60.4528 9.63145 61.769C9.63145 62.882 9.03693 63.5807 8.18688 63.5564C7.37595 63.5347 6.83619 62.8739 6.81794 61.796C6.79447 60.4419 6.78665 59.0878 6.81794 57.7337C6.83619 57.1217 6.65627 56.9212 6.05133 56.9212C4.7215 56.9646 3.38645 56.9456 2.05401 56.9212C1.011 56.9212 0.489502 56.3931 0.489502 55.3153C0.489502 49.7797 0.489502 44.2441 0.489502 38.7085C0.489502 37.5521 0.97189 37.0836 2.10094 37.0646C3.43338 37.0646 4.76583 37.0375 6.09827 37.0646C6.65888 37.0781 6.82837 36.8804 6.81533 36.3117C6.78404 34.9982 6.79708 33.6793 6.81533 32.3631C6.81533 31.1444 7.35248 30.4213 8.21035 30.4159C9.06823 30.4105 9.62623 31.139 9.63406 32.3388C9.63406 33.6225 9.67838 34.9061 9.62102 36.1871C9.58712 36.9238 9.84005 37.0944 10.505 37.0673C11.7357 37.0158 12.9743 37.0483 14.2076 37.0538C15.5114 37.0538 15.9442 37.4925 15.9521 38.8737C15.9729 41.6198 15.9651 44.3199 15.9651 47.0146ZM13.1985 47.0363C13.1985 44.9103 13.1803 42.7844 13.1985 40.6611C13.1985 40.0897 13.0473 39.9109 12.4893 39.9164C9.63145 39.9434 6.77274 39.9434 3.91317 39.9164C3.34734 39.9164 3.20914 40.1032 3.21174 40.6665C3.2326 44.8823 3.2326 49.099 3.21174 53.3166C3.21174 53.9232 3.35255 54.1291 3.96793 54.1291C6.79447 54.0948 9.62015 54.0948 12.445 54.1291C13.0655 54.1291 13.209 53.9178 13.2011 53.3166C13.1751 51.2259 13.1985 49.1351 13.1985 47.0417V47.0363Z" fill="white"/>
<path d="M73.5001 60.4176C73.5001 63.0843 73.5001 65.751 73.5001 68.4177C73.5001 69.9722 73.1168 70.3622 71.5914 70.3703C70.4232 70.3703 69.2447 70.419 68.0817 70.354C67.3177 70.308 67.143 70.6113 67.1691 71.3398C67.2186 72.5856 67.1951 73.8368 67.1691 75.0853C67.143 76.3338 66.6058 77.0163 65.7401 77C64.8744 76.9838 64.3582 76.2688 64.3503 75.0501C64.3503 73.7339 64.3243 72.4177 64.3503 71.1015C64.366 70.5165 64.16 70.3459 63.6176 70.3595C62.2852 70.392 60.9527 70.3838 59.6203 70.3595C58.4808 70.3432 58.0297 69.8882 58.0271 68.6858C58.0167 63.1863 58.0167 57.6796 58.0271 52.1657C58.0271 50.9686 58.5486 50.4812 59.7168 50.4703C60.984 50.4703 62.2539 50.4378 63.5211 50.4703C64.1391 50.492 64.379 50.3241 64.3529 49.6362C64.3008 48.3579 64.3321 47.0715 64.3529 45.7905C64.3529 44.5691 64.8744 43.8948 65.774 43.8948C66.6736 43.8948 67.1612 44.5664 67.1717 45.8149C67.1821 47.0634 67.2004 48.3823 67.1717 49.6633C67.1534 50.2699 67.3281 50.492 67.9357 50.4757C69.2394 50.4324 70.5432 50.4514 71.847 50.4757C73.0099 50.4893 73.5027 51.0011 73.5079 52.2009C73.5053 54.9497 73.5001 57.6823 73.5001 60.4176ZM70.7674 60.5016C70.7674 58.3756 70.7544 56.2497 70.7674 54.1237C70.7674 53.5821 70.6553 53.3437 70.0712 53.3492C67.2134 53.3762 64.3547 53.3762 61.4951 53.3492C60.9293 53.3492 60.7806 53.5523 60.7832 54.1129C60.8024 58.3323 60.8024 62.5508 60.7832 66.7684C60.7832 67.3236 60.911 67.5294 61.4821 67.524C64.3416 67.4969 67.2012 67.4969 70.0608 67.524C70.6188 67.524 70.7779 67.3506 70.77 66.7792C70.7518 64.6885 70.7674 62.595 70.7674 60.5016Z" fill="white"/>
<path d="M37 6.05823C37.7484 6.09343 38.2725 6.48072 38.3194 7.19027C38.3638 7.85107 38.6115 7.91606 39.1486 7.93773C40.0299 7.97023 40.5645 8.59312 40.5176 9.42725C40.4706 10.3264 39.9569 10.7543 39.1225 10.7814C38.3768 10.803 37.6284 10.7814 36.8801 10.7949C36.3142 10.7949 35.6728 10.8084 35.6545 11.6074C35.6363 12.4063 36.2673 12.4198 36.8436 12.4198C37.7666 12.3873 38.6688 12.4821 39.4511 13.0292C40.0124 13.3789 40.4651 13.8887 40.7554 14.498C41.0457 15.1072 41.1614 15.7903 41.0886 16.4659C41.0501 17.0872 40.8517 17.6864 40.5141 18.2009C40.1766 18.7154 39.7122 19.1263 39.1695 19.3908C38.6845 19.6616 38.3377 19.8024 38.3246 20.4957C38.3116 21.189 37.8031 21.6332 37.0887 21.6765C36.3325 21.7253 35.7849 21.3217 35.6884 20.577C35.618 19.9487 35.4277 19.8403 34.8671 19.8105C33.9571 19.7645 33.459 19.1633 33.4799 18.3237C33.5007 17.4842 34.0014 16.9859 34.9583 16.9371C35.7406 16.8992 36.5229 16.9371 37.3051 16.9209C37.8266 16.9209 38.3351 16.7909 38.3481 16.1355C38.3611 15.4801 37.884 15.323 37.3416 15.323C36.8552 15.3287 36.369 15.2988 35.8866 15.2337C34.3795 14.9845 33.1435 13.7306 32.9323 12.279C32.7871 11.4761 32.9062 10.6459 33.2704 9.92179C33.6345 9.19772 34.2227 8.62194 34.9401 8.28709C35.386 8.07585 35.6572 7.90794 35.6702 7.3013C35.6858 6.48612 36.2412 6.0826 37 6.05823Z" fill="white"/>
</g>
<defs>
<clipPath id="clip0_265_13">
<rect width="73" height="77" fill="white" transform="translate(0.5)"/>
</clipPath>
</defs>
</svg>
